<svg width="30" height="28" viewBox="0 0 30 28" fill="none" xmlns="http://www.w3.org/2000/svg">
<path fill-rule="evenodd" clip-rule="evenodd" d="M15.0002 1.93869C22.2497 -1.77238 26.6831 0.358963 28.5413 4.01302C29.5344 5.96601 30.334 9.43054 29.8595 13.0457H23.1415L22.2644 11.2183C21.9015 10.355 20.687 10.2645 20.2143 11.0977L19.4986 12.3585L18.0325 6.52725C17.7968 5.35315 16.1169 5.28342 15.7999 6.45214L14.2298 12.2287L13.7098 10.3046C13.4786 9.43632 12.3585 9.15242 11.7483 9.84194L8.90548 13.0457H0.140523C-0.33405 9.43054 0.465636 5.96601 1.45908 4.01302C3.31692 0.358963 7.75025 -1.77238 15.0002 1.93869V1.93869ZM29.3784 15.3411C27.8248 20.6419 19.8172 26.8287 15.0002 27.6819C10.1832 26.8283 2.17556 20.6423 0.622029 15.3415H9.41587C9.79338 15.3415 10.1281 15.1589 10.3373 14.8781L12.0495 12.9486L13.1169 16.9193C13.4197 18.0518 15.0268 18.0403 15.3311 16.9232L16.865 11.2838L17.9717 15.6863C18.2309 16.724 19.6388 16.8604 20.1092 15.9209L21.1257 14.1293L21.3934 14.6867C21.5895 15.0969 21.9982 15.3365 22.4246 15.3369L29.3784 15.3411Z" fill="#CA6B6E"/>
</svg>
