<svg width="613" height="355" viewBox="0 0 613 355" fill="none" xmlns="http://www.w3.org/2000/svg">
<path d="M425.499 303.404C403.323 325.224 374.583 340.659 344.634 348.101C267.873 367.176 162.384 348.488 126.05 269.484C116.617 248.972 113.514 226.431 113.167 204.022C111.897 122.014 158.407 37.1769 238.474 9.4059C281.335 -5.46014 330.082 -2.4853 370.817 17.4825C457.503 59.9751 497.024 179.077 453.634 265.177C446.445 279.443 436.829 292.257 425.499 303.404Z" fill="url(#paint0_linear_137_1027)"/>
<path d="M379.157 240.494C379.157 240.494 353.297 100.319 387.519 5.6307C389.819 -0.734405 398.712 -1.96731 403.19 3.47873C433.133 39.8945 510.985 155.243 379.157 240.494Z" fill="#BDD0FB"/>
<path opacity="0.5" d="M388.763 227.206C388.573 227.635 389.223 227.957 389.471 227.557C398.649 212.838 429.604 145.842 406.566 44.2605C406.492 43.9343 405.976 43.9938 406.02 44.324C409.275 68.6569 418.648 159.371 388.763 227.206Z" fill="white"/>
<path d="M436.265 22.3943C436.162 21.2332 437.78 20.7882 438.4 21.8102C448.295 38.1235 480.777 99.76 459.828 176.371C440.662 246.466 414.982 292.3 404.689 308.962C402.653 312.257 397.552 312.146 395.457 308.758C383.041 288.678 351.324 230.824 367.57 186.854C386.983 134.31 441.174 77.8088 436.265 22.3943Z" fill="#91B3FA"/>
<path opacity="0.5" d="M443.103 85.1875C443.103 85.1875 461.594 147.488 401.193 305.329C401.193 305.329 452.913 143.384 443.103 85.1875Z" fill="white"/>
<path d="M181.78 41.4338L368.655 40.6315C378.965 40.5873 387.501 48.6301 388.069 58.9243L403.026 329.798C403.471 337.854 397.158 344.677 389.092 344.859L174.927 349.671C167.348 349.841 161.103 343.761 161.071 336.181L159.9 63.5031C159.848 51.3666 169.644 41.4859 181.78 41.4338Z" fill="#7D97F4"/>
<path d="M182.346 39.235C207.88 42.5861 295.681 52.9126 368.211 47.0316C371.519 46.7634 374.401 49.258 374.592 52.571L390.224 324.65C390.438 328.38 387.602 331.583 383.873 331.82C353.366 333.757 227.725 341.277 182.88 336.775C180.151 336.501 178.07 334.213 178.042 331.47L175.134 45.6324C175.094 41.7495 178.496 38.7297 182.346 39.235Z" fill="#91B3FA"/>
<path opacity="0.73" d="M185.11 46.2827C209.682 49.5076 294.177 59.4453 363.976 53.7856C367.159 53.5275 369.933 55.9282 370.116 59.1165L385.159 320.95C385.366 324.54 382.637 327.623 379.048 327.85C349.69 329.714 228.78 336.951 185.624 332.619C182.997 332.355 180.995 330.153 180.968 327.513L178.169 52.4393C178.131 48.7026 181.405 45.7965 185.11 46.2827Z" fill="white"/>
<path opacity="0.78" d="M190.527 72.5331L193.377 128.669C193.472 130.536 194.987 132.015 196.855 132.059C207.255 132.308 239.661 132.959 257.952 131.927C260.021 131.81 261.651 130.129 261.711 128.057C262.015 117.526 262.647 86.8754 260.192 74.0738C259.796 72.006 258.01 70.4972 255.906 70.4328L194.434 68.5472C192.218 68.4792 190.415 70.3183 190.527 72.5331Z" fill="white"/>
<path d="M238.05 92.4036C238.079 99.0696 232.698 104.497 226.032 104.525C219.366 104.554 213.939 99.1733 213.91 92.5071C213.882 85.841 219.262 80.4139 225.928 80.3854C232.594 80.3569 238.021 85.7376 238.05 92.4036Z" fill="url(#paint1_linear_137_1027)"/>
<path d="M207.799 127.971L246.252 127.806C248.61 127.796 250.011 125.187 248.733 123.206C245.445 118.109 238.579 110.63 226.745 111.02C215.34 111.395 208.608 118.206 205.23 123.085C203.796 125.156 205.28 127.982 207.799 127.971Z" fill="url(#paint2_linear_137_1027)"/>
<g opacity="0.6">
<path d="M355.247 76.7588C356.195 76.7547 356.945 75.9762 356.913 75.0288L356.902 74.7075C356.871 73.76 356.069 72.9744 355.121 72.9616L286.786 72.0373C285.838 72.0245 285.323 72.7445 285.642 73.6372L286.282 75.4292C286.6 76.322 287.637 77.0492 288.585 77.0451L355.247 76.7588Z" fill="white"/>
</g>
<g opacity="0.6">
<path d="M286.83 82.5046C285.882 82.4918 285.367 83.2118 285.686 84.1046L286.326 85.8966C286.645 86.7894 287.681 87.5166 288.629 87.5125L355.292 87.2264C356.24 87.2223 356.989 86.4437 356.958 85.4963L356.947 85.1749C356.915 84.2274 356.113 83.4418 355.165 83.429L286.83 82.5046Z" fill="white"/>
</g>
<g opacity="0.6">
<path d="M286.876 93.1232C285.928 93.1104 285.413 93.8304 285.732 94.7231L286.372 96.5151C286.69 97.4079 287.727 98.135 288.675 98.131L355.337 97.8449C356.285 97.8408 357.035 97.0624 357.003 96.1148L356.992 95.7936C356.96 94.8461 356.159 94.0605 355.211 94.0477L286.876 93.1232Z" fill="white"/>
</g>
<path d="M214.692 163.875C214.685 163.875 214.679 163.875 214.672 163.875L201.346 163.804C199.482 163.794 197.94 162.522 197.757 160.845L196.537 149.669C196.468 149.035 196.662 148.407 197.084 147.9C197.559 147.33 198.28 146.97 199.064 146.914C200.186 146.832 201.767 146.691 203.441 146.541C206.963 146.226 211.346 145.833 213.811 145.792C215.548 145.756 217.056 146.805 217.474 148.327C218.177 150.88 218.137 155.732 218.027 160.902C217.992 162.545 216.498 163.875 214.692 163.875ZM199.126 147.773C198.575 147.813 198.072 148.06 197.746 148.451C197.475 148.777 197.349 149.176 197.393 149.575L198.613 160.751C198.749 161.993 199.925 162.935 201.35 162.942L214.676 163.013C214.681 163.013 214.686 163.013 214.691 163.013C216.032 163.013 217.141 162.061 217.165 160.884C217.273 155.78 217.315 150.997 216.643 148.555C216.335 147.431 215.156 146.627 213.825 146.653C211.391 146.694 207.025 147.085 203.517 147.399C201.84 147.549 200.256 147.691 199.126 147.773Z" fill="white"/>
<g opacity="0.6">
<path d="M226.987 152.311C226.038 152.312 225.464 153.062 225.71 153.978L226.601 157.3C226.847 158.216 227.823 158.954 228.771 158.94L350.557 157.143C351.505 157.129 352.261 156.342 352.236 155.394L352.196 153.869C352.171 152.922 351.375 152.147 350.427 152.148L226.987 152.311Z" fill="white"/>
</g>
<path d="M201.145 150.753C202.132 150.168 203.406 150.509 203.969 151.509L206.618 156.209C206.883 156.68 207.571 156.647 207.791 156.153L214.248 141.611C214.57 140.886 215.649 141.126 215.641 141.919C215.593 146.359 214.451 154.803 207.388 161.898C207.388 161.898 203.472 160.395 200.295 153.495C199.835 152.499 200.201 151.312 201.145 150.753Z" fill="url(#paint3_linear_137_1027)"/>
<path d="M214.815 192.437C214.808 192.437 214.802 192.437 214.795 192.437L201.468 192.366C199.605 192.356 198.062 191.084 197.879 189.407L196.66 178.231C196.591 177.597 196.785 176.968 197.207 176.462C197.682 175.892 198.403 175.532 199.186 175.475C200.309 175.394 201.889 175.252 203.563 175.102C207.085 174.787 211.469 174.395 213.934 174.354C215.681 174.325 217.178 175.367 217.597 176.888C218.3 179.442 218.259 184.294 218.15 189.464C218.115 191.107 216.621 192.437 214.815 192.437ZM199.249 176.335C198.698 176.375 198.195 176.622 197.87 177.013C197.598 177.339 197.473 177.738 197.516 178.137L198.736 189.313C198.871 190.555 200.048 191.497 201.473 191.504L214.8 191.575C214.805 191.575 214.81 191.575 214.815 191.575C216.155 191.575 217.263 190.623 217.288 189.446C217.396 184.342 217.438 179.559 216.767 177.117C216.453 175.975 215.295 175.193 213.948 175.215C211.514 175.256 207.148 175.647 203.64 175.961C201.963 176.111 200.378 176.253 199.249 176.335Z" fill="white"/>
<path opacity="0.6" d="M200.693 177.564C203.492 177.36 209.574 176.716 212.459 176.668C213.682 176.648 214.758 177.381 215.049 178.441C215.615 180.498 215.559 184.603 215.478 188.392C215.454 189.527 214.416 190.437 213.143 190.43L202.494 190.373C201.184 190.366 200.093 189.478 199.966 188.316L198.991 179.385C198.89 178.461 199.656 177.639 200.693 177.564Z" fill="white"/>
<g opacity="0.6">
<path d="M227.109 180.873C226.161 180.874 225.586 181.624 225.832 182.54L226.723 185.862C226.969 186.778 227.945 187.515 228.893 187.501L350.679 185.704C351.627 185.69 352.383 184.903 352.358 183.956L352.318 182.431C352.293 181.483 351.497 180.709 350.549 180.71L227.109 180.873Z" fill="white"/>
</g>
<path d="M214.938 220.998C214.931 220.998 214.925 220.998 214.917 220.998L201.591 220.928C199.728 220.918 198.185 219.646 198.002 217.968L196.782 206.792C196.713 206.158 196.908 205.53 197.33 205.023C197.805 204.453 198.526 204.094 199.309 204.037C200.432 203.956 202.013 203.814 203.687 203.664C207.209 203.349 211.592 202.957 214.057 202.915C215.796 202.883 217.301 203.928 217.72 205.45C218.422 208.004 218.382 212.856 218.272 218.026C218.238 219.669 216.744 220.998 214.938 220.998ZM199.371 204.897C198.821 204.937 198.318 205.184 197.992 205.575C197.72 205.9 197.595 206.3 197.639 206.699L198.858 217.875C198.994 219.116 200.171 220.058 201.595 220.066L214.922 220.136C214.928 220.136 214.933 220.136 214.938 220.136C216.278 220.136 217.386 219.184 217.411 218.008C217.519 212.904 217.561 208.121 216.889 205.679C216.581 204.555 215.403 203.744 214.071 203.777C211.638 203.818 207.272 204.208 203.764 204.522C202.086 204.673 200.501 204.814 199.371 204.897Z" fill="white"/>
<path opacity="0.6" d="M200.816 206.125C203.614 205.922 209.696 205.278 212.582 205.229C213.805 205.209 214.88 205.943 215.172 207.002C215.737 209.059 215.681 213.164 215.601 216.953C215.577 218.088 214.539 218.998 213.266 218.992L202.616 218.935C201.306 218.928 200.215 218.04 200.088 216.877L199.114 207.946C199.013 207.022 199.778 206.2 200.816 206.125Z" fill="white"/>
<g opacity="0.6">
<path d="M227.231 209.434C226.283 209.435 225.708 210.185 225.954 211.101L226.846 214.423C227.092 215.339 228.068 216.077 229.016 216.063L350.802 214.266C351.75 214.252 352.505 213.465 352.48 212.517L352.441 210.992C352.416 210.045 351.62 209.27 350.672 209.271L227.231 209.434Z" fill="white"/>
</g>
<path d="M215.06 249.56C215.053 249.56 215.047 249.56 215.04 249.56L201.713 249.489C199.85 249.479 198.307 248.207 198.124 246.53L196.904 235.354C196.835 234.72 197.03 234.091 197.453 233.584C197.927 233.015 198.649 232.655 199.431 232.599C200.553 232.517 202.132 232.376 203.804 232.226C207.327 231.911 211.713 231.518 214.179 231.477C214.203 231.476 214.227 231.476 214.25 231.476C215.959 231.476 217.43 232.511 217.842 234.012C218.545 236.565 218.504 241.417 218.395 246.588C218.36 248.23 216.866 249.56 215.06 249.56ZM214.247 232.338C214.229 232.338 214.211 232.338 214.193 232.339C211.758 232.379 207.39 232.77 203.881 233.084C202.205 233.234 200.623 233.376 199.494 233.458C198.943 233.498 198.441 233.745 198.114 234.136C197.843 234.462 197.718 234.861 197.761 235.26L198.981 246.437C199.116 247.678 200.293 248.62 201.717 248.627L215.044 248.698C215.05 248.698 215.055 248.698 215.06 248.698C216.4 248.698 217.508 247.746 217.533 246.569C217.641 241.466 217.683 236.682 217.011 234.24C216.706 233.131 215.549 232.338 214.247 232.338Z" fill="white"/>
<path opacity="0.6" d="M200.938 234.686C203.737 234.483 209.819 233.839 212.704 233.791C213.927 233.77 215.003 234.505 215.294 235.564C215.86 237.621 215.804 241.726 215.723 245.515C215.699 246.649 214.661 247.56 213.389 247.553L202.739 247.496C201.429 247.489 200.338 246.601 200.211 245.439L199.236 236.507C199.136 235.584 199.901 234.762 200.938 234.686Z" fill="white"/>
<g opacity="0.6">
<path d="M227.354 237.996C226.406 237.997 225.832 238.747 226.077 239.663L226.969 242.985C227.215 243.901 228.191 244.639 229.139 244.625L350.925 242.828C351.873 242.814 352.628 242.027 352.604 241.079L352.564 239.554C352.539 238.607 351.743 237.832 350.795 237.833L227.354 237.996Z" fill="white"/>
</g>
<path d="M286.649 4.04223C279.879 -0.62474 274.01 -0.506383 269.883 0.730362C266.119 1.85861 263.692 5.508 264.067 9.41998L265.932 28.8611L287.144 30.6518C287.144 30.6518 299.927 13.1949 286.649 4.04223ZM277.392 19.7725C274.472 19.7851 272.095 17.4284 272.082 14.5083C272.07 11.5884 274.427 9.21106 277.346 9.19851C280.266 9.18595 282.644 11.5429 282.656 14.4629C282.669 17.3829 280.312 19.7601 277.392 19.7725Z" fill="url(#paint4_linear_137_1027)"/>
<path d="M268.014 20.5892C267.794 20.5892 267.607 20.4224 267.585 20.1996L267.288 17.1037C267.265 16.8667 267.439 16.6561 267.676 16.6334C267.913 16.6114 268.123 16.7847 268.146 17.0212L268.443 20.1171C268.465 20.354 268.292 20.5646 268.055 20.5873C268.041 20.5886 268.027 20.5892 268.014 20.5892ZM267.431 14.5222C267.212 14.5222 267.024 14.3553 267.003 14.1325L266.778 11.7819C266.423 8.09354 268.73 4.64795 272.262 3.589C274.777 2.8353 277.37 2.71796 279.971 3.23905C280.204 3.2858 280.355 3.51278 280.309 3.74617C280.262 3.97994 280.034 4.1293 279.801 4.08408C277.34 3.59105 274.887 3.70172 272.509 4.41456C269.37 5.35554 267.32 8.41942 267.635 11.6994L267.861 14.05C267.883 14.287 267.71 14.4976 267.473 14.5203C267.459 14.5217 267.445 14.5222 267.431 14.5222Z" fill="#BDD0FB"/>
<path d="M237.048 41.5539L237.006 31.7757C236.991 28.4002 239.777 25.6849 243.151 25.7859L310.578 27.8062C313.57 27.8959 316.004 30.2471 316.196 33.2346L316.799 42.6277L237.048 41.5539Z" fill="url(#paint5_linear_137_1027)"/>
<path d="M259.233 29.3207C258.996 29.3207 258.803 29.129 258.802 28.8917C258.801 28.6537 258.993 28.4599 259.231 28.4588L262.131 28.4463C262.131 28.4463 262.132 28.4463 262.133 28.4463C262.37 28.4463 262.563 28.6379 262.563 28.8753C262.564 29.1133 262.372 29.3071 262.134 29.3081L259.235 29.3208C259.234 29.3207 259.234 29.3207 259.233 29.3207Z" fill="#BDD0FB"/>
<path d="M240.682 38.3868C240.445 38.3868 240.252 38.1952 240.251 37.9578L240.234 34.0024C240.221 30.9904 242.661 28.5297 245.673 28.5168L256.332 28.4712C256.332 28.4712 256.333 28.4712 256.334 28.4712C256.571 28.4712 256.764 28.6628 256.765 28.9002C256.765 29.1382 256.574 29.332 256.335 29.333L245.676 29.3786C243.14 29.3895 241.085 31.462 241.096 33.9987L241.113 37.9541C241.114 38.1921 240.922 38.3859 240.684 38.3869C240.683 38.3868 240.683 38.3868 240.682 38.3868Z" fill="#BDD0FB"/>
<path d="M215.909 38.0657L333.799 37.5562C338.038 37.5379 341.676 40.573 342.417 44.7468L342.519 45.3227C343.33 49.8945 339.826 54.0942 335.183 54.114L214.234 54.6333C211.455 54.6452 209.231 52.3315 209.352 49.5553L209.589 44.1409C209.738 40.7541 212.519 38.0804 215.909 38.0657Z" fill="#7D97F4"/>
<path d="M201.006 346.416H3.82142C1.71095 346.416 0 344.705 0 342.595V223.659C0 221.549 1.71095 219.838 3.82142 219.838H201.006C203.116 219.838 204.827 221.549 204.827 223.659V342.595C204.827 344.705 203.116 346.416 201.006 346.416Z" fill="url(#paint6_linear_137_1027)"/>
<path d="M184.891 340.768H19.9366C12.8369 340.768 7.08154 335.013 7.08154 327.913V240.326C7.08154 233.226 12.8371 227.471 19.9366 227.471H184.891C191.991 227.471 197.746 233.226 197.746 240.326V327.913C197.746 335.012 191.991 340.768 184.891 340.768Z" fill="#7D97F4"/>
<path d="M43.3521 334.824H18.8864C17.7515 334.824 16.8315 333.904 16.8315 332.769V241.334C16.8315 240.199 17.7515 239.279 18.8864 239.279H43.3521C44.487 239.279 45.407 240.199 45.407 241.334V332.769C45.407 333.904 44.487 334.824 43.3521 334.824Z" fill="url(#paint7_linear_137_1027)"/>
<path opacity="0.47" d="M41.982 334.009H20.2565C19.1216 334.009 18.2017 333.089 18.2017 331.954V241.334C18.2017 240.199 19.1216 239.279 20.2565 239.279H41.982C43.1169 239.279 44.0369 240.199 44.0369 241.334V331.954C44.0369 333.089 43.1169 334.009 41.982 334.009Z" fill="white"/>
<path d="M43.5966 252.763C35.1283 255.186 26.6011 255.122 18.0172 252.672C16.3899 252.207 15.2661 250.719 15.2661 249.027V234.973H46.5816V248.783C46.5816 250.625 45.3675 252.257 43.5966 252.763Z" fill="url(#paint8_linear_137_1027)"/>
<path d="M30.9238 236.931C39.5713 236.931 46.5814 236.186 46.5814 235.267C46.5814 234.348 39.5713 233.604 30.9238 233.604C22.2763 233.604 15.2661 234.348 15.2661 235.267C15.2661 236.186 22.2763 236.931 30.9238 236.931Z" fill="url(#paint9_linear_137_1027)"/>
<path d="M21.602 267.091C27.599 267.846 33.6955 267.855 39.8969 267.078C41.3703 266.894 42.6672 268.058 42.6672 269.543V326.366C42.6672 327.532 41.857 328.548 40.7171 328.793C34.2182 330.19 27.5908 330.249 20.8477 329.109C19.6573 328.907 18.7891 327.868 18.7891 326.661V269.549C18.7892 268.047 20.1116 266.903 21.602 267.091Z" fill="white"/>
<path d="M90.7173 333.737H66.2517C65.1167 333.737 64.1968 332.817 64.1968 331.682V240.247C64.1968 239.112 65.1167 238.192 66.2517 238.192H90.7173C91.8522 238.192 92.7722 239.112 92.7722 240.247V331.682C92.7722 332.817 91.8522 333.737 90.7173 333.737Z" fill="url(#paint10_linear_137_1027)"/>
<path opacity="0.47" d="M89.3469 332.922H67.6213C66.4864 332.922 65.5664 332.002 65.5664 330.867V240.247C65.5664 239.112 66.4864 238.192 67.6213 238.192H89.3469C90.4818 238.192 91.4018 239.112 91.4018 240.247V330.867C91.4018 332.002 90.4818 332.922 89.3469 332.922Z" fill="white"/>
<path d="M90.9614 251.677C82.4931 254.1 73.9659 254.036 65.3819 251.585C63.7546 251.121 62.6309 249.633 62.6309 247.94V233.887H93.9463V247.696C93.9463 249.538 92.7323 251.17 90.9614 251.677Z" fill="url(#paint11_linear_137_1027)"/>
<path d="M78.2885 235.844C86.936 235.844 93.9462 235.099 93.9462 234.18C93.9462 233.261 86.936 232.517 78.2885 232.517C69.641 232.517 62.6309 233.261 62.6309 234.18C62.6309 235.099 69.641 235.844 78.2885 235.844Z" fill="url(#paint12_linear_137_1027)"/>
<path d="M68.9668 266.004C74.9637 266.76 81.0602 266.768 87.2616 265.992C88.7351 265.807 90.0319 266.971 90.0319 268.456V325.279C90.0319 326.445 89.2217 327.462 88.0818 327.707C81.583 329.104 74.9555 329.163 68.2124 328.022C67.022 327.821 66.1538 326.781 66.1538 325.574V268.463C66.1538 266.96 67.4763 265.816 68.9668 266.004Z" fill="white"/>
<path d="M137.299 334.281H112.833C111.698 334.281 110.778 333.361 110.778 332.226V240.791C110.778 239.656 111.698 238.736 112.833 238.736H137.299C138.434 238.736 139.354 239.656 139.354 240.791V332.226C139.354 333.361 138.434 334.281 137.299 334.281Z" fill="url(#paint13_linear_137_1027)"/>
<path opacity="0.47" d="M135.929 333.465H114.203C113.068 333.465 112.148 332.545 112.148 331.41V240.79C112.148 239.655 113.068 238.735 114.203 238.735H135.929C137.064 238.735 137.984 239.655 137.984 240.79V331.41C137.984 332.545 137.064 333.465 135.929 333.465Z" fill="white"/>
<path d="M137.543 252.22C129.075 254.643 120.548 254.579 111.964 252.129C110.337 251.664 109.213 250.176 109.213 248.484V234.43H140.528V248.24C140.528 250.082 139.314 251.714 137.543 252.22Z" fill="url(#paint14_linear_137_1027)"/>
<path d="M124.871 236.387C133.519 236.387 140.529 235.643 140.529 234.724C140.529 233.805 133.519 233.06 124.871 233.06C116.224 233.06 109.213 233.805 109.213 234.724C109.213 235.643 116.224 236.387 124.871 236.387Z" fill="url(#paint15_linear_137_1027)"/>
<path d="M115.548 266.547C121.545 267.303 127.642 267.311 133.843 266.535C135.317 266.35 136.613 267.514 136.613 268.999V325.822C136.613 326.988 135.803 328.005 134.663 328.25C128.165 329.647 121.537 329.706 114.794 328.565C113.604 328.364 112.735 327.324 112.735 326.117V269.006C112.735 267.503 114.058 266.359 115.548 266.547Z" fill="white"/>
<path d="M184.663 333.194H160.197C159.063 333.194 158.143 332.274 158.143 331.139V239.704C158.143 238.569 159.063 237.649 160.197 237.649H184.663C185.798 237.649 186.718 238.569 186.718 239.704V331.139C186.718 332.274 185.798 333.194 184.663 333.194Z" fill="url(#paint16_linear_137_1027)"/>
<path opacity="0.47" d="M183.294 332.379H161.568C160.433 332.379 159.513 331.459 159.513 330.324V239.704C159.513 238.569 160.433 237.649 161.568 237.649H183.294C184.428 237.649 185.348 238.569 185.348 239.704V330.324C185.348 331.459 184.428 332.379 183.294 332.379Z" fill="white"/>
<path d="M184.908 251.134C176.44 253.556 167.912 253.493 159.328 251.042C157.701 250.577 156.577 249.09 156.577 247.397V233.344H187.893V247.153C187.893 248.995 186.679 250.627 184.908 251.134Z" fill="url(#paint17_linear_137_1027)"/>
<path d="M172.235 235.301C180.883 235.301 187.893 234.556 187.893 233.637C187.893 232.718 180.883 231.974 172.235 231.974C163.588 231.974 156.578 232.718 156.578 233.637C156.578 234.556 163.588 235.301 172.235 235.301Z" fill="url(#paint18_linear_137_1027)"/>
<path d="M162.913 265.461C168.91 266.217 175.007 266.225 181.208 265.449C182.681 265.265 183.978 266.428 183.978 267.913V324.736C183.978 325.902 183.168 326.919 182.028 327.164C175.529 328.561 168.902 328.62 162.159 327.479C160.968 327.278 160.1 326.238 160.1 325.031V267.92C160.1 266.417 161.423 265.273 162.913 265.461Z" fill="white"/>
<path d="M517.962 345.521C523.439 345.994 532.945 346.763 540.439 347.093C544.943 347.291 547.537 346.85 549.03 346.252C549.028 346.42 549.023 346.58 549.016 346.727C548.981 347.516 548.34 348.147 547.544 348.191C533.384 348.981 522.122 348.465 518.113 348.221C517.284 348.17 516.79 347.269 517.214 346.563C517.426 346.209 517.683 345.863 517.962 345.521Z" fill="url(#paint19_linear_137_1027)"/>
<path d="M540.438 347.093C532.945 346.763 523.439 345.994 517.962 345.52C523.347 338.914 540.438 334.461 540.438 334.461H545.266C548.586 339.247 549.067 343.803 549.03 346.252C547.537 346.85 544.943 347.291 540.438 347.093Z" fill="url(#paint20_linear_137_1027)"/>
<path d="M546.078 326.581L545.627 335.52C545.578 336.488 544.853 337.301 543.884 337.44C542.919 337.578 541.627 337.595 540.257 337.139C539.415 336.859 538.789 336.149 538.634 335.283L537.073 326.581L546.078 326.581Z" fill="url(#paint21_linear_137_1027)"/>
<path d="M608.778 347.026C611.153 346.695 612.227 345.461 612.678 344.142C612.681 344.154 612.684 344.165 612.687 344.177C613.036 345.569 612.226 347.011 610.607 347.697C608.649 348.525 606.509 348.667 604.847 348.598C603.064 348.525 601.428 347.787 600.529 346.606L600.515 346.589C602.305 347.474 604.817 347.578 608.778 347.026Z" fill="url(#paint22_linear_137_1027)"/>
<path d="M597.579 326.523H601.56C607.624 326.399 611.432 339.189 612.678 344.141C612.227 345.461 611.153 346.694 608.778 347.026C604.817 347.578 602.305 347.474 600.515 346.588C597.24 342.278 595.615 335.964 594.835 332.279C593.947 328.088 597.579 326.523 597.579 326.523Z" fill="url(#paint23_linear_137_1027)"/>
<path d="M601.048 318.226L603.259 327.018C603.53 328.096 603.014 329.211 602.017 329.723C600.781 330.357 599.04 331.024 597.44 330.831C596.687 330.74 596.062 330.21 595.813 329.502L592.568 320.252L601.048 318.226Z" fill="url(#paint24_linear_137_1027)"/>
<path d="M603.685 320.767C600.935 323.207 591.989 323.529 591.989 323.529C559.765 246.189 546.584 235.202 546.584 235.202C551.236 264.393 547.334 329.02 547.334 329.02C542.016 331.366 535.161 329.02 535.161 329.02C534.729 281.229 527.383 239.551 518.706 206.693C540.485 206.204 552.067 198.751 555.849 195.76C574.003 225.029 603.685 320.767 603.685 320.767Z" fill="url(#paint25_linear_137_1027)"/>
<path d="M550.318 106.819C554.44 127.381 552.963 164.184 551.992 180.971C551.72 185.689 564.599 200.551 574.408 230.158C574.665 230.932 574.568 231.754 573.843 232.127C569.386 234.417 543.828 236.288 526.328 237.171C525.161 237.23 524.035 236.455 523.817 235.307C514.342 185.629 490.724 127.199 489.482 127.626C506.129 101.043 550.318 106.819 550.318 106.819Z" fill="url(#paint26_linear_137_1027)"/>
<path d="M576.175 165.833C574.851 175.412 570.938 185.86 563.112 196.958L560.137 194.533C560.137 194.533 563.572 180.599 561.619 164.785C566.447 163.843 572.148 164.814 576.175 165.833Z" fill="url(#paint27_linear_137_1027)"/>
<path d="M545.713 132.19L550.318 106.819C550.318 106.819 581.082 130.334 576.175 165.832C572.149 164.814 566.447 163.843 561.62 164.785C560.213 153.394 556.012 141.027 545.713 132.19Z" fill="url(#paint28_linear_137_1027)"/>
<path d="M489.482 127.625C495.148 131.949 498.498 141.97 501.357 153.2C499.437 168.64 491.143 175.316 482.2 177.876C481.642 170.839 479.863 165.154 478.211 161.222C489.638 149.424 489.482 127.625 489.482 127.625Z" fill="url(#paint29_linear_137_1027)"/>
<path d="M478.212 161.222C479.863 165.155 481.642 170.84 482.2 177.877C458.34 187.134 452.027 169.18 452.027 169.18L456.437 168.402C466.395 169.451 473.351 166.241 478.212 161.222Z" fill="url(#paint30_linear_137_1027)"/>
<path d="M500.423 96.052L506.156 117.127C506.8 119.494 509.361 120.765 511.639 119.855C514.098 118.872 517.217 117.53 519.902 116.081C522.768 114.533 523.665 110.846 521.851 108.141L509.932 90.3691L500.423 96.052Z" fill="url(#paint31_linear_137_1027)"/>
<path d="M441.091 155.078L587.99 208.543C594.151 210.785 597.096 217.801 594.382 223.769L593.936 224.749C591.535 230.029 585.293 232.345 580.029 229.91L437.391 163.925L441.091 155.078Z" fill="url(#paint32_linear_137_1027)"/>
<path opacity="0.42" d="M373.57 194.125C413.619 194.125 446.086 162.244 446.086 122.917C446.086 83.59 413.619 51.709 373.57 51.709C333.52 51.709 301.053 83.59 301.053 122.917C301.053 162.244 333.52 194.125 373.57 194.125Z" fill="#91B3FA"/>
<path d="M292.878 122.917C292.878 166.678 329.005 202.152 373.57 202.152C418.134 202.152 454.261 166.678 454.261 122.917C454.261 79.1563 418.134 43.6812 373.57 43.6812C329.005 43.6813 292.878 79.1563 292.878 122.917ZM304.732 122.917C304.732 85.5844 335.551 55.3204 373.57 55.3204C411.588 55.3204 442.408 85.5844 442.408 122.917C442.408 160.249 411.588 190.513 373.57 190.513C335.551 190.513 304.732 160.249 304.732 122.917Z" fill="url(#paint33_linear_137_1027)"/>
<path d="M448.127 132.812C448.101 132.812 448.074 132.811 448.047 132.807C447.707 132.764 447.466 132.452 447.509 132.112C447.745 130.263 447.911 128.382 448.003 126.52C448.02 126.178 448.297 125.911 448.655 125.93C448.998 125.947 449.262 126.238 449.245 126.581C449.152 128.475 448.983 130.389 448.743 132.269C448.703 132.583 448.435 132.812 448.127 132.812ZM447.571 110.657C447.276 110.657 447.014 110.445 446.96 110.144C446.062 105.133 444.621 100.201 442.678 95.4861C442.678 95.4855 442.677 95.4847 442.677 95.4838C431.224 67.7021 404.098 49.7508 373.57 49.7508C359.333 49.7508 345.493 53.7053 333.547 61.1868C333.257 61.369 332.872 61.2809 332.69 60.99C332.508 60.6988 332.596 60.315 332.887 60.1327C345.031 52.5271 359.099 48.5068 373.57 48.5068C388.956 48.5068 403.768 53.0107 416.404 61.5314C428.746 69.8535 438.228 81.4287 443.825 95.0066C443.826 95.0077 443.826 95.0087 443.827 95.0099C445.804 99.8068 447.27 104.825 448.185 109.925C448.245 110.263 448.02 110.586 447.682 110.647C447.645 110.653 447.608 110.657 447.571 110.657Z" fill="#BDD0FB"/>
<path d="M487.881 80.0404C487.829 80.4024 492.663 104.09 492.663 104.09L506.129 101.043L504.883 77.911C504.883 77.911 488.755 73.9818 487.881 80.0404Z" fill="url(#paint34_linear_137_1027)"/>
<path d="M501.854 83.0655L503.464 95.1909C503.484 95.3463 503.484 95.5 503.462 95.6554C503.326 96.6057 502.619 99.8415 499.353 98.9163C496.389 98.0766 493.671 97.3546 491.794 97.9288C490.952 98.1867 490.443 99.0404 490.62 99.9038C491.059 102.056 492.14 106.887 493.719 110.941C494.04 111.764 494.941 112.196 495.788 111.949C498.342 111.204 503.685 109.483 507.659 107.091C508.197 106.767 508.518 106.182 508.491 105.554C508.362 102.493 508.004 93.1878 508.306 90.5795C508.588 88.1312 511.593 86.6646 512.898 86.1387C513.326 85.9663 513.662 85.629 513.833 85.2005C514.437 83.6856 515.271 80.18 510.853 78.7436C509.929 78.4431 509.441 77.4461 509.77 76.5311C510.424 74.7095 510.7 71.9296 507.282 70.398C503.809 68.8413 501.215 70.693 499.814 72.198C499.248 72.8064 498.339 72.8992 497.636 72.4551C497.236 72.2022 496.72 72.1195 496.098 72.5073C495.259 73.0301 494.147 72.6737 493.714 71.7851C492.882 70.0776 491.187 68.2487 487.786 68.8312C481.752 69.8646 481.068 76.5516 482.66 80.4703C484.252 84.3888 490.731 82.8964 493.981 80.9209C496.452 79.419 499.658 80.9933 501.052 81.8342C501.494 82.1004 501.787 82.554 501.854 83.0655Z" fill="url(#paint35_linear_137_1027)"/>
<path d="M508.847 94.9996C508.847 94.9996 506.367 88.0526 508.915 86.3512C511.464 84.6498 515.239 85.5332 514.408 90.5659C513.374 96.8257 508.847 94.9996 508.847 94.9996Z" fill="url(#paint36_linear_137_1027)"/>
<path d="M561.364 194.11L547.477 192.979L541.463 198.522C541.463 198.522 542.886 200.489 547.334 199.359C551.783 198.228 557.876 197.951 557.876 197.951C557.876 197.951 564.017 200.719 564.092 195.539L561.364 194.11Z" fill="url(#paint37_linear_137_1027)"/>
<path d="M453.796 172.465C452.595 173.404 448.48 171.445 445.962 170.09C444.735 169.431 444.141 167.996 444.562 166.667C445.168 164.757 446.178 162.29 447.422 161.979C449.485 161.463 458.745 168.599 453.796 172.465Z" fill="url(#paint38_linear_137_1027)"/>
<path d="M585.092 227.935C584.834 227.935 584.593 227.774 584.504 227.516C584.392 227.192 584.564 226.837 584.889 226.725C589 225.304 591.153 223.009 591.288 219.906C591.423 216.758 589.431 213.83 586.329 212.62L568.69 205.742C568.371 205.618 568.212 205.257 568.337 204.937C568.462 204.617 568.822 204.459 569.142 204.583L586.781 211.461C590.378 212.864 592.689 216.28 592.53 219.959C592.421 222.479 591.077 225.902 585.295 227.901C585.228 227.924 585.159 227.935 585.092 227.935Z" fill="#BDD0FB"/>
<path d="M563.482 203.666C563.407 203.666 563.331 203.652 563.256 203.623L560.97 202.732C560.65 202.607 560.492 202.246 560.617 201.927C560.742 201.606 561.102 201.449 561.422 201.573L563.708 202.464C564.028 202.589 564.186 202.95 564.062 203.27C563.966 203.516 563.731 203.666 563.482 203.666Z" fill="#BDD0FB"/>
<path d="M373.592 188.637C411.049 188.637 441.415 158.272 441.415 120.814C441.415 83.3558 411.049 52.9902 373.592 52.9902C336.134 52.9902 305.768 83.3558 305.768 120.814C305.768 158.272 336.134 188.637 373.592 188.637Z" fill="url(#paint39_linear_137_1027)"/>
<path opacity="0.88" d="M373.038 181.247C406.044 181.247 432.8 154.491 432.8 121.485C432.8 88.4795 406.044 61.7231 373.038 61.7231C340.033 61.7231 313.276 88.4795 313.276 121.485C313.276 154.491 340.033 181.247 373.038 181.247Z" fill="white"/>
<path d="M334.084 79.2103C335.631 79.2103 336.886 77.9558 336.886 76.4084C336.886 74.8609 335.631 73.6064 334.084 73.6064C332.536 73.6064 331.282 74.8609 331.282 76.4084C331.282 77.9558 332.536 79.2103 334.084 79.2103Z" fill="url(#paint40_linear_137_1027)"/>
<path d="M336.562 75.2144C336.673 77.1484 341.477 79.0873 344.988 80.2227L344.842 81.8171C340.568 80.2458 336.633 78.3079 334.47 79.1833L336.562 75.2144Z" fill="url(#paint41_linear_137_1027)"/>
<path d="M391.662 96.9422C393.21 96.9422 394.464 95.6878 394.464 94.1403C394.464 92.5928 393.21 91.3384 391.662 91.3384C390.115 91.3384 388.86 92.5928 388.86 94.1403C388.86 95.6878 390.115 96.9422 391.662 96.9422Z" fill="url(#paint42_linear_137_1027)"/>
<path d="M390.006 96.3366C389.021 94.6683 383.862 95.1461 380.221 95.7457L379.621 94.2615C384.14 93.6999 388.525 93.6195 390.047 91.8501L390.006 96.3366Z" fill="url(#paint43_linear_137_1027)"/>
<path d="M330.643 115.234C332.191 115.234 333.445 113.979 333.445 112.432C333.445 110.884 332.191 109.63 330.643 109.63C329.096 109.63 327.841 110.884 327.841 112.432C327.841 113.979 329.096 115.234 330.643 115.234Z" fill="url(#paint44_linear_137_1027)"/>
<path d="M331.019 109.706C332.692 110.683 336.964 107.753 339.851 105.455L341.099 106.458C337.426 109.151 333.636 111.358 333.169 113.644L331.019 109.706Z" fill="url(#paint45_linear_137_1027)"/>
<path d="M360.278 123.71C374.575 123.71 386.165 112.12 386.165 97.8235C386.165 83.5265 374.575 71.9365 360.278 71.9365C345.981 71.9365 334.391 83.5265 334.391 97.8235C334.391 112.12 345.981 123.71 360.278 123.71Z" fill="url(#paint46_linear_137_1027)"/>
<path d="M370.42 97.8211C371.968 97.8211 373.222 96.5667 373.222 95.0192C373.222 93.4718 371.968 92.2173 370.42 92.2173C368.873 92.2173 367.618 93.4718 367.618 95.0192C367.618 96.5667 368.873 97.8211 370.42 97.8211Z" fill="url(#paint47_linear_137_1027)"/>
<path d="M355.977 101.208C357.525 101.208 358.779 99.9539 358.779 98.4064C358.779 96.859 357.525 95.6045 355.977 95.6045C354.43 95.6045 353.175 96.859 353.175 98.4064C353.175 99.9539 354.43 101.208 355.977 101.208Z" fill="url(#paint48_linear_137_1027)"/>
<path d="M362.982 83.0106C364.53 83.0106 365.784 81.7561 365.784 80.2087C365.784 78.6612 364.53 77.4067 362.982 77.4067C361.435 77.4067 360.18 78.6612 360.18 80.2087C360.18 81.7561 361.435 83.0106 362.982 83.0106Z" fill="url(#paint49_linear_137_1027)"/>
<path d="M344.169 89.2816C345.716 89.2816 346.971 88.0271 346.971 86.4797C346.971 84.9322 345.716 83.6777 344.169 83.6777C342.621 83.6777 341.367 84.9322 341.367 86.4797C341.367 88.0271 342.621 89.2816 344.169 89.2816Z" fill="url(#paint50_linear_137_1027)"/>
<path d="M353.142 113.146C354.689 113.146 355.944 111.891 355.944 110.344C355.944 108.796 354.689 107.542 353.142 107.542C351.594 107.542 350.34 108.796 350.34 110.344C350.34 111.891 351.594 113.146 353.142 113.146Z" fill="url(#paint51_linear_137_1027)"/>
<path d="M372.555 113.146C374.102 113.146 375.357 111.892 375.357 110.344C375.357 108.797 374.102 107.542 372.555 107.542C371.007 107.542 369.753 108.797 369.753 110.344C369.753 111.892 371.007 113.146 372.555 113.146Z" fill="url(#paint52_linear_137_1027)"/>
<path d="M362.856 65.7547C364.403 65.7547 365.658 64.5003 365.658 62.9528C365.658 61.4053 364.403 60.1509 362.856 60.1509C361.308 60.1509 360.054 61.4053 360.054 62.9528C360.054 64.5003 361.308 65.7547 362.856 65.7547Z" fill="url(#paint53_linear_137_1027)"/>
<path d="M364.842 64.8564C363.069 65.6378 362.936 70.8165 363.102 74.5031L361.558 74.9245C361.532 70.3707 361.969 66.0064 360.392 64.2866L364.842 64.8564Z" fill="url(#paint54_linear_137_1027)"/>
<path d="M386.19 78.0687C385.078 79.1448 385.049 80.9187 386.125 82.0308C387.201 83.1428 388.975 83.172 390.087 82.0957C391.199 81.0195 391.228 79.2458 390.152 78.1337C389.076 77.0217 387.302 76.9926 386.19 78.0687Z" fill="url(#paint55_linear_137_1027)"/>
<path d="M387.427 82.7399C385.889 81.5628 381.286 83.9409 378.136 85.8627L377.994 85.7165C377.504 85.2094 377.633 84.3732 378.255 84.0393C381.8 82.1351 385.113 80.5478 385.783 78.5654L387.427 82.7399Z" fill="url(#paint56_linear_137_1027)"/>
<path d="M369.749 82.9687C368.962 83.9547 369.304 85.5366 370.513 86.5022C371.723 87.4678 373.341 87.4511 374.128 86.4652C374.915 85.4792 374.573 83.8973 373.364 82.9317C372.155 81.9661 370.536 81.9828 369.749 82.9687Z" fill="url(#paint57_linear_137_1027)"/>
<path d="M371.845 87.1032C370.202 86.0909 366.512 88.3208 364.048 90.1095L363.889 89.9826C363.338 89.5424 363.282 88.7938 363.777 88.4812C366.604 86.6989 369.286 85.2046 369.482 83.4214L371.845 87.1032Z" fill="url(#paint58_linear_137_1027)"/>
<path d="M383.327 96.7794C382.009 96.9759 381.124 98.376 381.352 99.9065C381.58 101.437 382.834 102.519 384.153 102.322C385.472 102.126 386.356 100.726 386.128 99.195C385.9 97.6644 384.646 96.5829 383.327 96.7794Z" fill="url(#paint59_linear_137_1027)"/>
<path d="M382.221 101.208C381.741 99.3427 378.108 98.3756 375.512 97.9435L375.482 97.7424C375.378 97.0444 375.767 96.4702 376.263 96.5908C379.088 97.2792 381.657 98.0723 382.795 96.9333L382.221 101.208Z" fill="url(#paint60_linear_137_1027)"/>
<path d="M389.906 114.507C391.453 114.507 392.708 113.252 392.708 111.705C392.708 110.157 391.453 108.903 389.906 108.903C388.358 108.903 387.104 110.157 387.104 111.705C387.104 113.252 388.358 114.507 389.906 114.507Z" fill="url(#paint61_linear_137_1027)"/>
<path d="M387.288 112.551C387.432 110.732 383.454 108.344 380.213 106.734C379.867 106.562 379.683 106.175 379.771 105.797L379.872 105.358C379.928 105.119 380.196 104.998 380.413 105.115C384.262 107.194 387.719 109.456 389.901 108.903L387.288 112.551Z" fill="url(#paint62_linear_137_1027)"/>
<path d="M366.661 109.82C365.898 108.831 364.42 108.692 363.359 109.509C362.299 110.327 362.057 111.792 362.82 112.781C363.582 113.77 365.06 113.91 366.121 113.092C367.182 112.275 367.423 110.81 366.661 109.82Z" fill="url(#paint63_linear_137_1027)"/>
<path d="M362.804 110.795C363.938 109.709 363.244 106.784 362.483 104.611C362.402 104.378 362.531 104.07 362.796 103.866L363.105 103.628C363.274 103.498 363.485 103.519 363.53 103.67C364.337 106.355 364.831 109.013 366.296 109.451L362.804 110.795Z" fill="url(#paint64_linear_137_1027)"/>
<path d="M357.719 134.917C359.267 134.917 360.521 133.662 360.521 132.115C360.521 130.567 359.267 129.313 357.719 129.313C356.172 129.313 354.917 130.567 354.917 132.115C354.917 133.662 356.172 134.917 357.719 134.917Z" fill="url(#paint65_linear_137_1027)"/>
<path d="M355.753 130.192C357.404 129.484 357.685 124.982 357.615 121.391C357.605 120.904 357.93 120.475 358.401 120.352C358.774 120.254 359.139 120.539 359.133 120.925C359.071 125.195 358.725 129.169 360.197 130.807L355.753 130.192Z" fill="url(#paint66_linear_137_1027)"/>
<path d="M377.188 71.9364C378.736 71.9364 379.99 70.6819 379.99 69.1344C379.99 67.587 378.736 66.3325 377.188 66.3325C375.641 66.3325 374.386 67.587 374.386 69.1344C374.386 70.6819 375.641 71.9364 377.188 71.9364Z" fill="url(#paint67_linear_137_1027)"/>
<path d="M378.334 71.6356C376.458 71.7065 374.491 76.1842 373.276 79.6359C373.209 79.8274 373.018 79.9468 372.816 79.9243C372.188 79.8542 371.799 79.2031 372.037 78.6172C373.574 74.836 375.162 71.4445 374.406 69.4663L378.334 71.6356Z" fill="url(#paint68_linear_137_1027)"/>
<path d="M326.472 96.9422C328.02 96.9422 329.274 95.6878 329.274 94.1403C329.274 92.5928 328.02 91.3384 326.472 91.3384C324.925 91.3384 323.67 92.5928 323.67 94.1403C323.67 95.6878 324.925 96.9422 326.472 96.9422Z" fill="url(#paint69_linear_137_1027)"/>
<path d="M328.133 91.9468C329.063 93.5305 333.75 93.1929 337.339 92.6489C337.678 92.5974 338.008 92.786 338.136 93.1045C338.327 93.5786 338.012 94.1044 337.504 94.1601C333.354 94.6157 329.494 94.7988 328.082 96.4331L328.133 91.9468Z" fill="url(#paint70_linear_137_1027)"/>
<path d="M340.115 101.269C341.311 100.788 341.813 99.2342 341.236 97.7984C340.659 96.3628 339.221 95.589 338.024 96.0701C336.827 96.5513 336.325 98.1052 336.903 99.541C337.48 100.977 338.918 101.751 340.115 101.269Z" fill="url(#paint71_linear_137_1027)"/>
<path d="M340.366 96.623C341.254 98.2237 345.25 98.164 348.292 97.8397C348.58 97.8089 348.873 98.0122 349.001 98.3307C349.192 98.8049 348.953 99.3002 348.521 99.3254C344.992 99.5313 341.696 99.4876 340.581 101.003L340.366 96.623Z" fill="url(#paint72_linear_137_1027)"/>
<path d="M351.437 85.0238C352.304 86.0473 353.964 86.066 355.145 85.0659C356.326 84.0657 356.58 82.4251 355.713 81.4016C354.846 80.3782 353.186 80.3594 352.006 81.3596C350.825 82.3599 350.57 84.0004 351.437 85.0238Z" fill="url(#paint73_linear_137_1027)"/>
<path d="M355.706 83.5381C354.43 84.8417 355.137 87.8971 355.923 90.1158C355.997 90.3257 355.865 90.6304 355.603 90.8522C355.213 91.1826 354.734 91.19 354.641 90.867C353.88 88.2277 353.379 85.671 351.851 85.3979L355.706 83.5381Z" fill="url(#paint74_linear_137_1027)"/>
<path d="M341.335 127.528C342.882 127.528 344.137 126.273 344.137 124.726C344.137 123.178 342.882 121.924 341.335 121.924C339.787 121.924 338.533 123.178 338.533 124.726C338.533 126.273 339.787 127.528 341.335 127.528Z" fill="url(#paint75_linear_137_1027)"/>
<path d="M341.01 121.994C342.644 122.452 345.703 118.858 347.926 115.975C348.376 115.391 349.258 115.396 349.701 115.984C349.844 116.174 349.84 116.438 349.688 116.621C346.888 120.022 343.963 123.001 344.084 125.262L341.01 121.994Z" fill="url(#paint76_linear_137_1027)"/>
<path d="M347.193 68.3114C348.74 68.3114 349.995 67.0569 349.995 65.5094C349.995 63.962 348.74 62.7075 347.193 62.7075C345.646 62.7075 344.391 63.962 344.391 65.5094C344.391 67.0569 345.646 68.3114 347.193 68.3114Z" fill="url(#paint77_linear_137_1027)"/>
<path d="M349.899 66.0088C348.847 67.6356 351.581 72.036 353.745 75.025L352.686 76.2258C350.163 72.4347 348.13 68.548 345.867 67.9778L349.899 66.0088Z" fill="url(#paint78_linear_137_1027)"/>
<path d="M375.106 125.633C374.006 124.544 372.232 124.553 371.143 125.653C370.055 126.753 370.064 128.527 371.164 129.616C372.264 130.704 374.038 130.695 375.126 129.595C376.215 128.495 376.206 126.721 375.106 125.633Z" fill="url(#paint79_linear_137_1027)"/>
<path d="M370.463 126.971C371.521 125.523 369.477 121.515 367.588 118.462C367.328 118.041 367.39 117.497 367.738 117.145C368.005 116.876 368.455 116.934 368.643 117.262C370.768 120.972 372.497 124.576 374.6 125.237L370.463 126.971Z" fill="url(#paint80_linear_137_1027)"/>
<path d="M392.38 119.058C393.41 119.058 394.245 118.223 394.245 117.193C394.245 116.163 393.41 115.328 392.38 115.328C391.35 115.328 390.515 116.163 390.515 117.193C390.515 118.223 391.35 119.058 392.38 119.058Z" fill="url(#paint81_linear_137_1027)"/>
<path d="M394.03 116.399C394.104 117.686 397.302 118.977 399.64 119.733L399.542 120.794C396.697 119.748 394.078 118.458 392.638 119.041L394.03 116.399Z" fill="url(#paint82_linear_137_1027)"/>
<path d="M430.709 130.862C431.739 130.862 432.574 130.027 432.574 128.997C432.574 127.967 431.739 127.132 430.709 127.132C429.679 127.132 428.844 127.967 428.844 128.997C428.844 130.027 429.679 130.862 430.709 130.862Z" fill="url(#paint83_linear_137_1027)"/>
<path d="M429.607 130.46C428.951 129.349 425.518 129.667 423.094 130.066L422.694 129.078C425.702 128.704 428.622 128.651 429.634 127.473L429.607 130.46Z" fill="url(#paint84_linear_137_1027)"/>
<path d="M390.09 143.038C391.12 143.038 391.955 142.203 391.955 141.173C391.955 140.143 391.12 139.308 390.09 139.308C389.06 139.308 388.225 140.143 388.225 141.173C388.225 142.203 389.06 143.038 390.09 143.038Z" fill="url(#paint85_linear_137_1027)"/>
<path d="M390.339 139.359C391.453 140.009 394.297 138.059 396.219 136.529L397.049 137.197C394.605 138.989 392.081 140.458 391.771 141.981L390.339 139.359Z" fill="url(#paint86_linear_137_1027)"/>
<path d="M409.817 148.682C419.335 148.682 427.05 140.966 427.05 131.449C427.05 121.932 419.335 114.216 409.817 114.216C400.3 114.216 392.584 121.932 392.584 131.449C392.584 140.966 400.3 148.682 409.817 148.682Z" fill="url(#paint87_linear_137_1027)"/>
<path d="M416.569 131.447C417.599 131.447 418.434 130.612 418.434 129.582C418.434 128.552 417.599 127.717 416.569 127.717C415.539 127.717 414.704 128.552 414.704 129.582C414.704 130.612 415.539 131.447 416.569 131.447Z" fill="url(#paint88_linear_137_1027)"/>
<path d="M406.954 133.703C407.984 133.703 408.819 132.867 408.819 131.837C408.819 130.807 407.984 129.972 406.954 129.972C405.924 129.972 405.089 130.807 405.089 131.837C405.089 132.867 405.924 133.703 406.954 133.703Z" fill="url(#paint89_linear_137_1027)"/>
<path d="M411.617 121.588C412.647 121.588 413.482 120.753 413.482 119.723C413.482 118.693 412.647 117.858 411.617 117.858C410.587 117.858 409.752 118.693 409.752 119.723C409.752 120.753 410.587 121.588 411.617 121.588Z" fill="url(#paint90_linear_137_1027)"/>
<path d="M399.094 125.763C400.124 125.763 400.959 124.928 400.959 123.897C400.959 122.867 400.124 122.032 399.094 122.032C398.064 122.032 397.229 122.867 397.229 123.897C397.229 124.928 398.064 125.763 399.094 125.763Z" fill="url(#paint91_linear_137_1027)"/>
<path d="M405.067 141.649C406.097 141.649 406.932 140.814 406.932 139.784C406.932 138.754 406.097 137.918 405.067 137.918C404.037 137.918 403.202 138.754 403.202 139.784C403.202 140.814 404.037 141.649 405.067 141.649Z" fill="url(#paint92_linear_137_1027)"/>
<path d="M417.99 141.649C419.02 141.649 419.855 140.814 419.855 139.784C419.855 138.754 419.02 137.918 417.99 137.918C416.96 137.918 416.125 138.754 416.125 139.784C416.125 140.814 416.96 141.649 417.99 141.649Z" fill="url(#paint93_linear_137_1027)"/>
<path d="M411.533 110.102C412.563 110.102 413.398 109.267 413.398 108.237C413.398 107.207 412.563 106.372 411.533 106.372C410.503 106.372 409.668 107.207 409.668 108.237C409.668 109.267 410.503 110.102 411.533 110.102Z" fill="url(#paint94_linear_137_1027)"/>
<path d="M412.856 109.503C411.676 110.023 411.587 113.471 411.697 115.925L410.669 116.206C410.652 113.174 410.943 110.269 409.893 109.124L412.856 109.503Z" fill="url(#paint95_linear_137_1027)"/>
<path d="M427.067 118.298C426.327 119.015 426.308 120.195 427.024 120.936C427.74 121.676 428.921 121.695 429.661 120.979C430.402 120.263 430.421 119.082 429.705 118.342C428.988 117.601 427.807 117.582 427.067 118.298Z" fill="url(#paint96_linear_137_1027)"/>
<path d="M427.891 121.408C426.867 120.624 423.803 122.207 421.706 123.487L421.612 123.389C421.285 123.052 421.371 122.495 421.785 122.273C424.145 121.005 426.35 119.949 426.796 118.629L427.891 121.408Z" fill="url(#paint97_linear_137_1027)"/>
<path d="M416.122 121.56C415.598 122.216 415.826 123.27 416.631 123.912C417.436 124.555 418.513 124.544 419.037 123.888C419.561 123.231 419.333 122.178 418.529 121.536C417.723 120.893 416.646 120.904 416.122 121.56Z" fill="url(#paint98_linear_137_1027)"/>
<path d="M417.517 124.313C416.423 123.639 413.967 125.123 412.327 126.314L412.221 126.23C411.854 125.936 411.817 125.438 412.147 125.23C414.029 124.044 415.814 123.049 415.944 121.862L417.517 124.313Z" fill="url(#paint99_linear_137_1027)"/>
<path d="M425.162 130.754C424.284 130.885 423.695 131.817 423.847 132.836C423.999 133.855 424.834 134.575 425.712 134.444C426.59 134.313 427.178 133.381 427.027 132.362C426.875 131.343 426.04 130.623 425.162 130.754Z" fill="url(#paint100_linear_137_1027)"/>
<path d="M424.425 133.702C424.106 132.46 421.688 131.817 419.959 131.529L419.939 131.395C419.87 130.93 420.129 130.548 420.459 130.628C422.34 131.087 424.05 131.615 424.807 130.856L424.425 133.702Z" fill="url(#paint101_linear_137_1027)"/>
<path d="M429.962 138.873C428.958 138.64 427.956 139.265 427.723 140.269C427.491 141.272 428.116 142.274 429.119 142.507C430.123 142.739 431.125 142.115 431.357 141.111C431.59 140.108 430.965 139.105 429.962 138.873Z" fill="url(#paint102_linear_137_1027)"/>
<path d="M427.798 141.253C427.894 140.042 425.246 138.453 423.088 137.381C422.858 137.266 422.736 137.008 422.794 136.757L422.861 136.465C422.898 136.305 423.077 136.225 423.221 136.303C425.784 137.687 428.085 139.193 429.537 138.825L427.798 141.253Z" fill="url(#paint103_linear_137_1027)"/>
<path d="M414.067 139.435C413.559 138.776 412.575 138.683 411.869 139.228C411.163 139.772 411.002 140.747 411.51 141.406C412.017 142.064 413.001 142.157 413.707 141.613C414.413 141.069 414.574 140.093 414.067 139.435Z" fill="url(#paint104_linear_137_1027)"/>
<path d="M411.499 140.084C412.254 139.361 411.792 137.414 411.286 135.967C411.231 135.813 411.317 135.607 411.494 135.471L411.7 135.313C411.812 135.226 411.952 135.24 411.983 135.341C412.519 137.128 412.849 138.898 413.824 139.19L411.499 140.084Z" fill="url(#paint105_linear_137_1027)"/>
<path d="M408.114 156.141C409.144 156.141 409.979 155.306 409.979 154.276C409.979 153.246 409.144 152.411 408.114 152.411C407.084 152.411 406.249 153.246 406.249 154.276C406.249 155.306 407.084 156.141 408.114 156.141Z" fill="url(#paint106_linear_137_1027)"/>
<path d="M406.805 152.996C407.904 152.525 408.091 149.528 408.044 147.138C408.038 146.814 408.254 146.528 408.567 146.446C408.816 146.381 409.059 146.571 409.055 146.828C409.014 149.67 408.783 152.316 409.763 153.406L406.805 152.996Z" fill="url(#paint107_linear_137_1027)"/>
<path d="M421.074 114.217C422.104 114.217 422.939 113.382 422.939 112.352C422.939 111.321 422.104 110.486 421.074 110.486C420.044 110.486 419.209 111.321 419.209 112.352C419.209 113.382 420.044 114.217 421.074 114.217Z" fill="url(#paint108_linear_137_1027)"/>
<path d="M421.837 114.016C420.588 114.064 419.279 117.044 418.47 119.342C418.425 119.47 418.298 119.549 418.164 119.534C417.746 119.487 417.487 119.054 417.645 118.664C418.668 116.147 419.726 113.889 419.222 112.572L421.837 114.016Z" fill="url(#paint109_linear_137_1027)"/>
<path d="M387.313 130.862C388.344 130.862 389.179 130.027 389.179 128.997C389.179 127.967 388.344 127.132 387.313 127.132C386.283 127.132 385.448 127.967 385.448 128.997C385.448 130.027 386.283 130.862 387.313 130.862Z" fill="url(#paint110_linear_137_1027)"/>
<path d="M388.418 127.537C389.038 128.591 392.158 128.367 394.547 128.005C394.773 127.97 394.992 128.096 395.077 128.308C395.204 128.623 394.995 128.973 394.657 129.011C391.894 129.314 389.324 129.436 388.385 130.524L388.418 127.537Z" fill="url(#paint111_linear_137_1027)"/>
<path d="M396.395 133.743C397.192 133.423 397.526 132.388 397.142 131.433C396.757 130.477 395.8 129.962 395.004 130.282C394.207 130.602 393.873 131.637 394.257 132.593C394.641 133.548 395.599 134.064 396.395 133.743Z" fill="url(#paint112_linear_137_1027)"/>
<path d="M396.562 130.65C397.153 131.716 399.813 131.676 401.838 131.46C402.03 131.439 402.225 131.575 402.31 131.787C402.437 132.102 402.278 132.432 401.991 132.449C399.641 132.586 397.447 132.557 396.705 133.565L396.562 130.65Z" fill="url(#paint113_linear_137_1027)"/>
<path d="M403.933 122.928C404.51 123.609 405.615 123.622 406.401 122.956C407.187 122.29 407.356 121.198 406.779 120.517C406.202 119.835 405.097 119.823 404.311 120.489C403.525 121.155 403.356 122.247 403.933 122.928Z" fill="url(#paint114_linear_137_1027)"/>
<path d="M406.774 121.939C405.924 122.807 406.395 124.841 406.919 126.318C406.968 126.457 406.88 126.66 406.706 126.808C406.446 127.028 406.127 127.033 406.065 126.818C405.559 125.061 405.225 123.359 404.208 123.177L406.774 121.939Z" fill="url(#paint115_linear_137_1027)"/>
<path d="M397.207 151.223C398.237 151.223 399.072 150.388 399.072 149.358C399.072 148.328 398.237 147.493 397.207 147.493C396.177 147.493 395.342 148.328 395.342 149.358C395.342 150.388 396.177 151.223 397.207 151.223Z" fill="url(#paint116_linear_137_1027)"/>
<path d="M396.991 147.539C398.079 147.844 400.115 145.451 401.595 143.532C401.895 143.144 402.482 143.146 402.777 143.539C402.872 143.665 402.869 143.84 402.768 143.962C400.904 146.227 398.957 148.209 399.037 149.714L396.991 147.539Z" fill="url(#paint117_linear_137_1027)"/>
<path d="M399.873 111.337C400.645 112.019 401.824 111.945 402.505 111.172C403.187 110.4 403.113 109.221 402.34 108.54C401.568 107.858 400.389 107.932 399.708 108.705C399.026 109.477 399.1 110.656 399.873 111.337Z" fill="url(#paint118_linear_137_1027)"/>
<path d="M402.908 110.271C402.208 111.353 404.027 114.283 405.468 116.272L404.763 117.072C403.084 114.548 401.731 111.961 400.224 111.581L402.908 110.271Z" fill="url(#paint119_linear_137_1027)"/>
<path d="M419.688 149.962C418.955 149.237 417.775 149.243 417.05 149.975C416.325 150.707 416.331 151.889 417.063 152.613C417.796 153.338 418.977 153.332 419.701 152.6C420.426 151.868 420.42 150.686 419.688 149.962Z" fill="url(#paint120_linear_137_1027)"/>
<path d="M416.597 150.853C417.302 149.889 415.941 147.22 414.684 145.188C414.51 144.907 414.552 144.545 414.783 144.311C414.961 144.132 415.261 144.171 415.386 144.389C416.801 146.859 417.951 149.258 419.352 149.698L416.597 150.853Z" fill="url(#paint121_linear_137_1027)"/>
<path d="M354.074 148.422C354.91 148.498 355.649 147.883 355.726 147.047C355.802 146.212 355.187 145.472 354.352 145.396C353.516 145.319 352.776 145.934 352.7 146.77C352.623 147.606 353.238 148.345 354.074 148.422Z" fill="url(#paint122_linear_137_1027)"/>
<path d="M355.556 146.261C355.617 147.309 358.222 148.361 360.126 148.976L360.046 149.841C357.729 148.989 355.595 147.938 354.422 148.413L355.556 146.261Z" fill="url(#paint123_linear_137_1027)"/>
<path d="M384.864 155.115C384.086 155.429 383.711 156.315 384.025 157.093C384.34 157.871 385.226 158.246 386.004 157.932C386.781 157.617 387.157 156.731 386.842 155.953C386.527 155.175 385.642 154.8 384.864 155.115Z" fill="url(#paint124_linear_137_1027)"/>
<path d="M384.536 157.715C384.002 156.81 381.205 157.069 379.23 157.394L378.905 156.589C381.355 156.285 383.733 156.241 384.558 155.282L384.536 157.715Z" fill="url(#paint125_linear_137_1027)"/>
<path d="M352.347 167.961C353.186 167.961 353.866 167.281 353.866 166.442C353.866 165.603 353.186 164.922 352.347 164.922C351.508 164.922 350.828 165.603 350.828 166.442C350.828 167.281 351.508 167.961 352.347 167.961Z" fill="url(#paint126_linear_137_1027)"/>
<path d="M352.551 164.964C353.458 165.494 355.775 163.905 357.34 162.659L358.017 163.203C356.025 164.663 353.97 165.86 353.717 167.1L352.551 164.964Z" fill="url(#paint127_linear_137_1027)"/>
<path d="M368.416 172.558C376.168 172.558 382.453 166.273 382.453 158.521C382.453 150.768 376.168 144.484 368.416 144.484C360.663 144.484 354.379 150.768 354.379 158.521C354.379 166.273 360.663 172.558 368.416 172.558Z" fill="url(#paint128_linear_137_1027)"/>
<path d="M373.916 158.519C374.755 158.519 375.435 157.839 375.435 157C375.435 156.161 374.755 155.48 373.916 155.48C373.077 155.48 372.396 156.161 372.396 157C372.396 157.839 373.077 158.519 373.916 158.519Z" fill="url(#paint129_linear_137_1027)"/>
<path d="M366.084 160.356C366.923 160.356 367.604 159.676 367.604 158.837C367.604 157.998 366.923 157.317 366.084 157.317C365.245 157.317 364.565 157.998 364.565 158.837C364.565 159.676 365.245 160.356 366.084 160.356Z" fill="url(#paint130_linear_137_1027)"/>
<path d="M369.883 150.488C370.722 150.488 371.402 149.808 371.402 148.969C371.402 148.13 370.722 147.45 369.883 147.45C369.043 147.45 368.363 148.13 368.363 148.969C368.363 149.808 369.043 150.488 369.883 150.488Z" fill="url(#paint131_linear_137_1027)"/>
<path d="M359.681 153.889C360.521 153.889 361.201 153.209 361.201 152.37C361.201 151.531 360.521 150.851 359.681 150.851C358.842 150.851 358.162 151.531 358.162 152.37C358.162 153.209 358.842 153.889 359.681 153.889Z" fill="url(#paint132_linear_137_1027)"/>
<path d="M364.547 166.829C365.386 166.829 366.066 166.149 366.066 165.31C366.066 164.471 365.386 163.791 364.547 163.791C363.708 163.791 363.027 164.471 363.027 165.31C363.027 166.149 363.708 166.829 364.547 166.829Z" fill="url(#paint133_linear_137_1027)"/>
<path d="M375.073 166.829C375.912 166.829 376.592 166.149 376.592 165.31C376.592 164.471 375.912 163.791 375.073 163.791C374.234 163.791 373.554 164.471 373.554 165.31C373.554 166.149 374.234 166.829 375.073 166.829Z" fill="url(#paint134_linear_137_1027)"/>
<path d="M369.814 141.132C370.653 141.132 371.334 140.452 371.334 139.613C371.334 138.773 370.653 138.093 369.814 138.093C368.975 138.093 368.295 138.773 368.295 139.613C368.295 140.452 368.975 141.132 369.814 141.132Z" fill="url(#paint135_linear_137_1027)"/>
<path d="M370.891 140.645C369.93 141.068 369.858 143.877 369.948 145.876L369.11 146.104C369.097 143.635 369.334 141.268 368.478 140.336L370.891 140.645Z" fill="url(#paint136_linear_137_1027)"/>
<path d="M382.467 147.809C381.864 148.393 381.848 149.355 382.431 149.958C383.015 150.561 383.977 150.576 384.58 149.993C385.183 149.409 385.198 148.448 384.615 147.845C384.032 147.242 383.07 147.226 382.467 147.809Z" fill="url(#paint137_linear_137_1027)"/>
<path d="M383.137 150.342C382.303 149.704 379.807 150.993 378.099 152.035L378.022 151.956C377.756 151.681 377.827 151.228 378.164 151.047C380.086 150.014 381.882 149.153 382.245 148.079L383.137 150.342Z" fill="url(#paint138_linear_137_1027)"/>
<path d="M373.552 150.466C373.125 151.001 373.31 151.859 373.966 152.382C374.622 152.906 375.5 152.897 375.926 152.362C376.353 151.828 376.168 150.97 375.512 150.446C374.856 149.923 373.979 149.932 373.552 150.466Z" fill="url(#paint139_linear_137_1027)"/>
<path d="M374.688 152.708C373.797 152.16 371.797 153.369 370.461 154.339L370.374 154.27C370.075 154.031 370.045 153.625 370.314 153.456C371.847 152.489 373.301 151.679 373.407 150.712L374.688 152.708Z" fill="url(#paint140_linear_137_1027)"/>
<path d="M380.915 157.954C380.2 158.061 379.72 158.82 379.844 159.65C379.968 160.48 380.648 161.066 381.363 160.96C382.078 160.853 382.558 160.094 382.434 159.264C382.31 158.434 381.63 157.848 380.915 157.954Z" fill="url(#paint141_linear_137_1027)"/>
<path d="M380.315 160.356C380.055 159.345 378.085 158.82 376.677 158.586L376.661 158.477C376.605 158.098 376.816 157.787 377.084 157.852C378.616 158.226 380.009 158.656 380.626 158.038L380.315 160.356Z" fill="url(#paint142_linear_137_1027)"/>
<path d="M384.482 167.567C385.321 167.567 386.001 166.887 386.001 166.048C386.001 165.209 385.321 164.528 384.482 164.528C383.643 164.528 382.962 165.209 382.962 166.048C382.962 166.887 383.643 167.567 384.482 167.567Z" fill="url(#paint143_linear_137_1027)"/>
<path d="M383.063 166.506C383.141 165.52 380.984 164.225 379.226 163.352C379.038 163.259 378.939 163.049 378.986 162.844L379.042 162.606C379.072 162.476 379.217 162.411 379.335 162.474C381.422 163.601 383.296 164.828 384.479 164.528L383.063 166.506Z" fill="url(#paint144_linear_137_1027)"/>
<path d="M371.877 165.025C371.464 164.489 370.662 164.413 370.087 164.857C369.512 165.3 369.381 166.094 369.795 166.631C370.208 167.167 371.01 167.243 371.585 166.799C372.16 166.356 372.291 165.562 371.877 165.025Z" fill="url(#paint145_linear_137_1027)"/>
<path d="M369.786 165.554C370.401 164.965 370.025 163.379 369.612 162.201C369.568 162.075 369.638 161.908 369.782 161.797L369.949 161.668C370.041 161.598 370.155 161.609 370.18 161.691C370.617 163.147 370.885 164.588 371.68 164.826L369.786 165.554Z" fill="url(#paint146_linear_137_1027)"/>
<path d="M367.029 178.633C367.868 178.633 368.548 177.953 368.548 177.114C368.548 176.275 367.868 175.595 367.029 175.595C366.19 175.595 365.51 176.275 365.51 177.114C365.51 177.953 366.19 178.633 367.029 178.633Z" fill="url(#paint147_linear_137_1027)"/>
<path d="M365.962 176.071C366.858 175.688 367.01 173.246 366.972 171.299C366.967 171.035 367.143 170.802 367.398 170.736C367.601 170.683 367.798 170.837 367.795 171.046C367.762 173.362 367.574 175.517 368.372 176.405L365.962 176.071Z" fill="url(#paint148_linear_137_1027)"/>
<path d="M376.075 142.796C375.983 143.63 376.583 144.382 377.417 144.475C378.251 144.568 379.002 143.967 379.095 143.133C379.188 142.299 378.588 141.548 377.754 141.455C376.92 141.362 376.168 141.963 376.075 142.796Z" fill="url(#paint149_linear_137_1027)"/>
<path d="M378.207 144.321C377.19 144.359 376.123 146.787 375.465 148.659C375.428 148.763 375.325 148.827 375.215 148.815C374.875 148.777 374.664 148.424 374.793 148.107C375.626 146.056 376.487 144.217 376.077 143.145L378.207 144.321Z" fill="url(#paint150_linear_137_1027)"/>
<path d="M350.653 157.933C351.431 157.62 351.808 156.735 351.495 155.957C351.182 155.178 350.297 154.801 349.519 155.114C348.74 155.427 348.363 156.312 348.676 157.091C348.989 157.869 349.874 158.246 350.653 157.933Z" fill="url(#paint151_linear_137_1027)"/>
<path d="M350.986 155.333C351.491 156.192 354.032 156.009 355.978 155.714C356.162 155.686 356.341 155.789 356.41 155.961C356.514 156.218 356.343 156.504 356.068 156.534C353.818 156.781 351.724 156.88 350.959 157.766L350.986 155.333Z" fill="url(#paint152_linear_137_1027)"/>
<path d="M357.483 160.389C358.132 160.128 358.404 159.286 358.091 158.507C357.778 157.729 356.998 157.309 356.35 157.57C355.701 157.831 355.429 158.674 355.742 159.452C356.055 160.231 356.835 160.65 357.483 160.389Z" fill="url(#paint153_linear_137_1027)"/>
<path d="M357.619 157.87C358.101 158.738 360.267 158.705 361.917 158.529C362.073 158.513 362.232 158.623 362.302 158.796C362.405 159.053 362.275 159.321 362.041 159.335C360.128 159.447 358.34 159.423 357.736 160.244L357.619 157.87Z" fill="url(#paint154_linear_137_1027)"/>
<path d="M363.623 151.58C364.093 152.135 364.993 152.146 365.633 151.603C366.273 151.061 366.411 150.171 365.941 149.616C365.471 149.061 364.571 149.051 363.931 149.594C363.291 150.136 363.153 151.025 363.623 151.58Z" fill="url(#paint155_linear_137_1027)"/>
<path d="M365.937 150.774C365.245 151.481 365.629 153.138 366.055 154.341C366.095 154.455 366.024 154.62 365.882 154.74C365.67 154.92 365.41 154.924 365.36 154.749C364.947 153.317 364.676 151.931 363.847 151.783L365.937 150.774Z" fill="url(#paint156_linear_137_1027)"/>
<path d="M359.53 173.73C359.874 172.965 359.533 172.066 358.768 171.722C358.002 171.378 357.103 171.719 356.759 172.485C356.415 173.25 356.756 174.149 357.522 174.493C358.287 174.837 359.186 174.496 359.53 173.73Z" fill="url(#paint157_linear_137_1027)"/>
<path d="M357.969 171.627C358.855 171.875 360.514 169.927 361.719 168.363C361.963 168.047 362.441 168.049 362.681 168.368C362.759 168.471 362.756 168.614 362.674 168.714C361.156 170.558 359.57 172.173 359.636 173.399L357.969 171.627Z" fill="url(#paint158_linear_137_1027)"/>
<path d="M361.321 142.518C362.16 142.518 362.84 141.838 362.84 140.999C362.84 140.16 362.16 139.479 361.321 139.479C360.482 139.479 359.802 140.16 359.802 140.999C359.802 141.838 360.482 142.518 361.321 142.518Z" fill="url(#paint159_linear_137_1027)"/>
<path d="M362.789 141.27C362.218 142.152 363.701 144.538 364.874 146.158L364.3 146.81C362.932 144.754 361.83 142.646 360.603 142.337L362.789 141.27Z" fill="url(#paint160_linear_137_1027)"/>
<path d="M375.387 176.199C376.226 176.199 376.906 175.519 376.906 174.68C376.906 173.841 376.226 173.161 375.387 173.161C374.548 173.161 373.868 173.841 373.868 174.68C373.868 175.519 374.548 176.199 375.387 176.199Z" fill="url(#paint161_linear_137_1027)"/>
<path d="M373.938 174.325C374.512 173.54 373.404 171.367 372.38 169.711C372.239 169.483 372.272 169.188 372.461 168.997C372.606 168.851 372.85 168.883 372.952 169.061C374.104 171.073 375.041 173.027 376.182 173.385L373.938 174.325Z" fill="url(#paint162_linear_137_1027)"/>
<defs>
<linearGradient id="paint0_linear_137_1027" x1="501.264" y1="409.797" x2="250.682" y2="143.047" gradientUnits="userSpaceOnUse">
<stop stop-color="#DAE3FE"/>
<stop offset="1" stop-color="#E9EFFD"/>
</linearGradient>
<linearGradient id="paint1_linear_137_1027" x1="240.346" y1="70.8688" x2="149.856" y2="206.845" gradientUnits="userSpaceOnUse">
<stop stop-color="#53D8FF"/>
<stop offset="1" stop-color="#3840F7"/>
</linearGradient>
<linearGradient id="paint2_linear_137_1027" x1="255.943" y1="81.2491" x2="165.454" y2="217.225" gradientUnits="userSpaceOnUse">
<stop stop-color="#53D8FF"/>
<stop offset="1" stop-color="#3840F7"/>
</linearGradient>
<linearGradient id="paint3_linear_137_1027" x1="173.841" y1="230.054" x2="212.001" y2="140.166" gradientUnits="userSpaceOnUse">
<stop stop-color="#E1473D"/>
<stop offset="1" stop-color="#E9605A"/>
</linearGradient>
<linearGradient id="paint4_linear_137_1027" x1="320.452" y1="-8.97472" x2="199.585" y2="61.7257" gradientUnits="userSpaceOnUse">
<stop stop-color="#09005D"/>
<stop offset="1" stop-color="#1A0F91"/>
</linearGradient>
<linearGradient id="paint5_linear_137_1027" x1="316.838" y1="-16.8149" x2="231.369" y2="96.6267" gradientUnits="userSpaceOnUse">
<stop stop-color="#09005D"/>
<stop offset="1" stop-color="#1A0F91"/>
</linearGradient>
<linearGradient id="paint6_linear_137_1027" x1="3.84281e-05" y1="283.127" x2="204.827" y2="283.127" gradientUnits="userSpaceOnUse">
<stop stop-color="#4F52FF"/>
<stop offset="1" stop-color="#4042E2"/>
</linearGradient>
<linearGradient id="paint7_linear_137_1027" x1="69.0444" y1="201.581" x2="-48.9215" y2="467.438" gradientUnits="userSpaceOnUse">
<stop stop-color="#FEBBBA"/>
<stop offset="1" stop-color="#FF928E"/>
</linearGradient>
<linearGradient id="paint8_linear_137_1027" x1="30.8402" y1="220.684" x2="31.0359" y2="270.593" gradientUnits="userSpaceOnUse">
<stop stop-color="#FF928E"/>
<stop offset="1" stop-color="#FE7062"/>
</linearGradient>
<linearGradient id="paint9_linear_137_1027" x1="71.0194" y1="108.743" x2="32.2376" y2="231.121" gradientUnits="userSpaceOnUse">
<stop stop-color="#E1473D"/>
<stop offset="1" stop-color="#E9605A"/>
</linearGradient>
<linearGradient id="paint10_linear_137_1027" x1="116.41" y1="200.494" x2="-1.55628" y2="466.351" gradientUnits="userSpaceOnUse">
<stop stop-color="#FEBBBA"/>
<stop offset="1" stop-color="#FF928E"/>
</linearGradient>
<linearGradient id="paint11_linear_137_1027" x1="78.205" y1="219.598" x2="78.4007" y2="269.507" gradientUnits="userSpaceOnUse">
<stop stop-color="#FF928E"/>
<stop offset="1" stop-color="#FE7062"/>
</linearGradient>
<linearGradient id="paint12_linear_137_1027" x1="114.944" y1="118.511" x2="76.1625" y2="240.889" gradientUnits="userSpaceOnUse">
<stop stop-color="#E1473D"/>
<stop offset="1" stop-color="#E9605A"/>
</linearGradient>
<linearGradient id="paint13_linear_137_1027" x1="162.991" y1="201.037" x2="45.0253" y2="466.894" gradientUnits="userSpaceOnUse">
<stop stop-color="#FEBBBA"/>
<stop offset="1" stop-color="#FF928E"/>
</linearGradient>
<linearGradient id="paint14_linear_137_1027" x1="124.787" y1="220.141" x2="124.983" y2="270.05" gradientUnits="userSpaceOnUse">
<stop stop-color="#FF928E"/>
<stop offset="1" stop-color="#FE7062"/>
</linearGradient>
<linearGradient id="paint15_linear_137_1027" x1="161.778" y1="118.262" x2="122.996" y2="240.64" gradientUnits="userSpaceOnUse">
<stop stop-color="#E1473D"/>
<stop offset="1" stop-color="#E9605A"/>
</linearGradient>
<linearGradient id="paint16_linear_137_1027" x1="158.143" y1="285.422" x2="186.718" y2="285.422" gradientUnits="userSpaceOnUse">
<stop stop-color="#FEBBBA"/>
<stop offset="1" stop-color="#FF928E"/>
</linearGradient>
<linearGradient id="paint17_linear_137_1027" x1="172.151" y1="219.055" x2="172.347" y2="268.964" gradientUnits="userSpaceOnUse">
<stop stop-color="#FF928E"/>
<stop offset="1" stop-color="#FE7062"/>
</linearGradient>
<linearGradient id="paint18_linear_137_1027" x1="207.328" y1="122.901" x2="168.546" y2="245.279" gradientUnits="userSpaceOnUse">
<stop stop-color="#E1473D"/>
<stop offset="1" stop-color="#E9605A"/>
</linearGradient>
<linearGradient id="paint19_linear_137_1027" x1="549.03" y1="347.067" x2="517.059" y2="347.067" gradientUnits="userSpaceOnUse">
<stop stop-color="#53D8FF"/>
<stop offset="1" stop-color="#3840F7"/>
</linearGradient>
<linearGradient id="paint20_linear_137_1027" x1="549.032" y1="340.801" x2="517.962" y2="340.801" gradientUnits="userSpaceOnUse">
<stop stop-color="#09005D"/>
<stop offset="1" stop-color="#1A0F91"/>
</linearGradient>
<linearGradient id="paint21_linear_137_1027" x1="546.078" y1="332.053" x2="537.073" y2="332.053" gradientUnits="userSpaceOnUse">
<stop stop-color="#FEBBBA"/>
<stop offset="1" stop-color="#FF928E"/>
</linearGradient>
<linearGradient id="paint22_linear_137_1027" x1="612.767" y1="346.377" x2="600.515" y2="346.377" gradientUnits="userSpaceOnUse">
<stop stop-color="#53D8FF"/>
<stop offset="1" stop-color="#3840F7"/>
</linearGradient>
<linearGradient id="paint23_linear_137_1027" x1="612.678" y1="336.944" x2="594.695" y2="336.944" gradientUnits="userSpaceOnUse">
<stop stop-color="#09005D"/>
<stop offset="1" stop-color="#1A0F91"/>
</linearGradient>
<linearGradient id="paint24_linear_137_1027" x1="603.331" y1="324.546" x2="592.568" y2="324.546" gradientUnits="userSpaceOnUse">
<stop stop-color="#FEBBBA"/>
<stop offset="1" stop-color="#FF928E"/>
</linearGradient>
<linearGradient id="paint25_linear_137_1027" x1="561.195" y1="128.961" x2="561.195" y2="175.496" gradientUnits="userSpaceOnUse">
<stop stop-color="#4F52FF"/>
<stop offset="1" stop-color="#4042E2"/>
</linearGradient>
<linearGradient id="paint26_linear_137_1027" x1="528.199" y1="193.782" x2="566.332" y2="49.6505" gradientUnits="userSpaceOnUse">
<stop stop-color="#4F52FF"/>
<stop offset="1" stop-color="#4042E2"/>
</linearGradient>
<linearGradient id="paint27_linear_137_1027" x1="554.022" y1="167.667" x2="592.335" y2="201.594" gradientUnits="userSpaceOnUse">
<stop stop-color="#FEBBBA"/>
<stop offset="1" stop-color="#FF928E"/>
</linearGradient>
<linearGradient id="paint28_linear_137_1027" x1="546.747" y1="198.689" x2="584.88" y2="54.5572" gradientUnits="userSpaceOnUse">
<stop stop-color="#4F52FF"/>
<stop offset="1" stop-color="#4042E2"/>
</linearGradient>
<linearGradient id="paint29_linear_137_1027" x1="483.451" y1="181.942" x2="521.584" y2="37.8101" gradientUnits="userSpaceOnUse">
<stop stop-color="#4F52FF"/>
<stop offset="1" stop-color="#4042E2"/>
</linearGradient>
<linearGradient id="paint30_linear_137_1027" x1="482.2" y1="170.875" x2="452.027" y2="170.875" gradientUnits="userSpaceOnUse">
<stop stop-color="#FEBBBA"/>
<stop offset="1" stop-color="#FF928E"/>
</linearGradient>
<linearGradient id="paint31_linear_137_1027" x1="511.529" y1="90.2416" x2="511.859" y2="146.588" gradientUnits="userSpaceOnUse">
<stop stop-color="#FEBBBA"/>
<stop offset="1" stop-color="#FF928E"/>
</linearGradient>
<linearGradient id="paint32_linear_137_1027" x1="595.395" y1="192.978" x2="437.391" y2="192.978" gradientUnits="userSpaceOnUse">
<stop stop-color="#09005D"/>
<stop offset="1" stop-color="#1A0F91"/>
</linearGradient>
<linearGradient id="paint33_linear_137_1027" x1="487.809" y1="67.9126" x2="441.271" y2="90.3199" gradientUnits="userSpaceOnUse">
<stop stop-color="#09005D"/>
<stop offset="1" stop-color="#1A0F91"/>
</linearGradient>
<linearGradient id="paint34_linear_137_1027" x1="517.105" y1="76.368" x2="482.633" y2="99.637" gradientUnits="userSpaceOnUse">
<stop stop-color="#FEBBBA"/>
<stop offset="1" stop-color="#FF928E"/>
</linearGradient>
<linearGradient id="paint35_linear_137_1027" x1="518.532" y1="87.0152" x2="422.3" y2="99.1824" gradientUnits="userSpaceOnUse">
<stop stop-color="#09005D"/>
<stop offset="1" stop-color="#1A0F91"/>
</linearGradient>
<linearGradient id="paint36_linear_137_1027" x1="529.3" y1="115.535" x2="510.541" y2="89.7691" gradientUnits="userSpaceOnUse">
<stop stop-color="#FEBBBA"/>
<stop offset="1" stop-color="#FF928E"/>
</linearGradient>
<linearGradient id="paint37_linear_137_1027" x1="538.892" y1="184.752" x2="577.205" y2="218.679" gradientUnits="userSpaceOnUse">
<stop stop-color="#FEBBBA"/>
<stop offset="1" stop-color="#FF928E"/>
</linearGradient>
<linearGradient id="paint38_linear_137_1027" x1="455.232" y1="167.332" x2="444.427" y2="167.332" gradientUnits="userSpaceOnUse">
<stop stop-color="#FEBBBA"/>
<stop offset="1" stop-color="#FF928E"/>
</linearGradient>
<linearGradient id="paint39_linear_137_1027" x1="409.728" y1="61.4353" x2="240.629" y2="339.294" gradientUnits="userSpaceOnUse">
<stop stop-color="#FF928E"/>
<stop offset="1" stop-color="#FE7062"/>
</linearGradient>
<linearGradient id="paint40_linear_137_1027" x1="342.18" y1="74.0893" x2="381.03" y2="62.9613" gradientUnits="userSpaceOnUse">
<stop stop-color="#E1473D"/>
<stop offset="1" stop-color="#E9605A"/>
</linearGradient>
<linearGradient id="paint41_linear_137_1027" x1="353.681" y1="74.7981" x2="421.783" y2="55.2915" gradientUnits="userSpaceOnUse">
<stop stop-color="#E1473D"/>
<stop offset="1" stop-color="#E9605A"/>
</linearGradient>
<linearGradient id="paint42_linear_137_1027" x1="385.528" y1="99.9111" x2="356.094" y2="127.603" gradientUnits="userSpaceOnUse">
<stop stop-color="#E1473D"/>
<stop offset="1" stop-color="#E9605A"/>
</linearGradient>
<linearGradient id="paint43_linear_137_1027" x1="374.98" y1="104.55" x2="323.384" y2="153.091" gradientUnits="userSpaceOnUse">
<stop stop-color="#E1473D"/>
<stop offset="1" stop-color="#E9605A"/>
</linearGradient>
<linearGradient id="paint44_linear_137_1027" x1="333.187" y1="104.403" x2="345.394" y2="65.8785" gradientUnits="userSpaceOnUse">
<stop stop-color="#E1473D"/>
<stop offset="1" stop-color="#E9605A"/>
</linearGradient>
<linearGradient id="paint45_linear_137_1027" x1="340.137" y1="95.2126" x2="361.535" y2="27.6826" gradientUnits="userSpaceOnUse">
<stop stop-color="#E1473D"/>
<stop offset="1" stop-color="#E9605A"/>
</linearGradient>
<linearGradient id="paint46_linear_137_1027" x1="-173.832" y1="-1167.79" x2="-154.01" y2="-1120.82" gradientUnits="userSpaceOnUse">
<stop stop-color="#FF928E"/>
<stop offset="1" stop-color="#FE7062"/>
</linearGradient>
<linearGradient id="paint47_linear_137_1027" x1="373.469" y1="102.87" x2="388.102" y2="140.54" gradientUnits="userSpaceOnUse">
<stop stop-color="#E1473D"/>
<stop offset="1" stop-color="#E9605A"/>
</linearGradient>
<linearGradient id="paint48_linear_137_1027" x1="359.027" y1="106.257" x2="373.659" y2="143.928" gradientUnits="userSpaceOnUse">
<stop stop-color="#E1473D"/>
<stop offset="1" stop-color="#E9605A"/>
</linearGradient>
<linearGradient id="paint49_linear_137_1027" x1="366.031" y1="88.0592" x2="380.664" y2="125.73" gradientUnits="userSpaceOnUse">
<stop stop-color="#E1473D"/>
<stop offset="1" stop-color="#E9605A"/>
</linearGradient>
<linearGradient id="paint50_linear_137_1027" x1="347.218" y1="94.3301" x2="361.85" y2="132.001" gradientUnits="userSpaceOnUse">
<stop stop-color="#E1473D"/>
<stop offset="1" stop-color="#E9605A"/>
</linearGradient>
<linearGradient id="paint51_linear_137_1027" x1="356.191" y1="118.194" x2="370.824" y2="155.865" gradientUnits="userSpaceOnUse">
<stop stop-color="#E1473D"/>
<stop offset="1" stop-color="#E9605A"/>
</linearGradient>
<linearGradient id="paint52_linear_137_1027" x1="375.604" y1="118.195" x2="390.237" y2="155.865" gradientUnits="userSpaceOnUse">
<stop stop-color="#E1473D"/>
<stop offset="1" stop-color="#E9605A"/>
</linearGradient>
<linearGradient id="paint53_linear_137_1027" x1="367.864" y1="69.7239" x2="391.896" y2="102.215" gradientUnits="userSpaceOnUse">
<stop stop-color="#E1473D"/>
<stop offset="1" stop-color="#E9605A"/>
</linearGradient>
<linearGradient id="paint54_linear_137_1027" x1="371.228" y1="80.7445" x2="413.353" y2="137.698" gradientUnits="userSpaceOnUse">
<stop stop-color="#E1473D"/>
<stop offset="1" stop-color="#E9605A"/>
</linearGradient>
<linearGradient id="paint55_linear_137_1027" x1="384.617" y1="87.7328" x2="367.723" y2="124.444" gradientUnits="userSpaceOnUse">
<stop stop-color="#E1473D"/>
<stop offset="1" stop-color="#E9605A"/>
</linearGradient>
<linearGradient id="paint56_linear_137_1027" x1="376.864" y1="96.1204" x2="347.249" y2="160.472" gradientUnits="userSpaceOnUse">
<stop stop-color="#E1473D"/>
<stop offset="1" stop-color="#E9605A"/>
</linearGradient>
<linearGradient id="paint57_linear_137_1027" x1="370.328" y1="91.6212" x2="358.236" y2="123.074" gradientUnits="userSpaceOnUse">
<stop stop-color="#E1473D"/>
<stop offset="1" stop-color="#E9605A"/>
</linearGradient>
<linearGradient id="paint58_linear_137_1027" x1="365.024" y1="99.2838" x2="343.827" y2="154.416" gradientUnits="userSpaceOnUse">
<stop stop-color="#E1473D"/>
<stop offset="1" stop-color="#E9605A"/>
</linearGradient>
<linearGradient id="paint59_linear_137_1027" x1="377.499" y1="103.564" x2="345.927" y2="119.634" gradientUnits="userSpaceOnUse">
<stop stop-color="#E1473D"/>
<stop offset="1" stop-color="#E9605A"/>
</linearGradient>
<linearGradient id="paint60_linear_137_1027" x1="370.932" y1="105.184" x2="324.167" y2="125.606" gradientUnits="userSpaceOnUse">
<stop stop-color="#E1473D"/>
<stop offset="1" stop-color="#E9605A"/>
</linearGradient>
<linearGradient id="paint61_linear_137_1027" x1="381.57" y1="112.903" x2="341.568" y2="118.651" gradientUnits="userSpaceOnUse">
<stop stop-color="#E1473D"/>
<stop offset="1" stop-color="#E9605A"/>
</linearGradient>
<linearGradient id="paint62_linear_137_1027" x1="370.652" y1="110.693" x2="301.845" y2="120.581" gradientUnits="userSpaceOnUse">
<stop stop-color="#E1473D"/>
<stop offset="1" stop-color="#E9605A"/>
</linearGradient>
<linearGradient id="paint63_linear_137_1027" x1="358.781" y1="107.892" x2="331.016" y2="90.2322" gradientUnits="userSpaceOnUse">
<stop stop-color="#E1473D"/>
<stop offset="1" stop-color="#E9605A"/>
</linearGradient>
<linearGradient id="paint64_linear_137_1027" x1="355.169" y1="103.649" x2="319.469" y2="76.9336" gradientUnits="userSpaceOnUse">
<stop stop-color="#E1473D"/>
<stop offset="1" stop-color="#E9605A"/>
</linearGradient>
<linearGradient id="paint65_linear_137_1027" x1="352.782" y1="125.292" x2="329.088" y2="92.5543" gradientUnits="userSpaceOnUse">
<stop stop-color="#E1473D"/>
<stop offset="1" stop-color="#E9605A"/>
</linearGradient>
<linearGradient id="paint66_linear_137_1027" x1="349.665" y1="114.712" x2="309.108" y2="58.6741" gradientUnits="userSpaceOnUse">
<stop stop-color="#E1473D"/>
<stop offset="1" stop-color="#E9605A"/>
</linearGradient>
<linearGradient id="paint67_linear_137_1027" x1="379.35" y1="77.2742" x2="389.722" y2="116.333" gradientUnits="userSpaceOnUse">
<stop stop-color="#E1473D"/>
<stop offset="1" stop-color="#E9605A"/>
</linearGradient>
<linearGradient id="paint68_linear_137_1027" x1="378.637" y1="88.5006" x2="396.64" y2="156.296" gradientUnits="userSpaceOnUse">
<stop stop-color="#E1473D"/>
<stop offset="1" stop-color="#E9605A"/>
</linearGradient>
<linearGradient id="paint69_linear_137_1027" x1="332.618" y1="88.3822" x2="362.109" y2="60.7516" gradientUnits="userSpaceOnUse">
<stop stop-color="#E1473D"/>
<stop offset="1" stop-color="#E9605A"/>
</linearGradient>
<linearGradient id="paint70_linear_137_1027" x1="342.783" y1="83.8234" x2="393.622" y2="36.1921" gradientUnits="userSpaceOnUse">
<stop stop-color="#E1473D"/>
<stop offset="1" stop-color="#E9605A"/>
</linearGradient>
<linearGradient id="paint71_linear_137_1027" x1="344.002" y1="93.3994" x2="370.396" y2="71.3728" gradientUnits="userSpaceOnUse">
<stop stop-color="#E1473D"/>
<stop offset="1" stop-color="#E9605A"/>
</linearGradient>
<linearGradient id="paint72_linear_137_1027" x1="352.447" y1="89.5325" x2="397.946" y2="51.5622" gradientUnits="userSpaceOnUse">
<stop stop-color="#E1473D"/>
<stop offset="1" stop-color="#E9605A"/>
</linearGradient>
<linearGradient id="paint73_linear_137_1027" x1="360.3" y1="86.4338" x2="390.789" y2="104.841" gradientUnits="userSpaceOnUse">
<stop stop-color="#E1473D"/>
<stop offset="1" stop-color="#E9605A"/>
</linearGradient>
<linearGradient id="paint74_linear_137_1027" x1="363.982" y1="90.1037" x2="400.546" y2="116.789" gradientUnits="userSpaceOnUse">
<stop stop-color="#E1473D"/>
<stop offset="1" stop-color="#E9605A"/>
</linearGradient>
<linearGradient id="paint75_linear_137_1027" x1="341.771" y1="116.315" x2="343.866" y2="75.9569" gradientUnits="userSpaceOnUse">
<stop stop-color="#E1473D"/>
<stop offset="1" stop-color="#E9605A"/>
</linearGradient>
<linearGradient id="paint76_linear_137_1027" x1="346.121" y1="105.406" x2="349.842" y2="33.7276" gradientUnits="userSpaceOnUse">
<stop stop-color="#E1473D"/>
<stop offset="1" stop-color="#E9605A"/>
</linearGradient>
<linearGradient id="paint77_linear_137_1027" x1="355.098" y1="68.4154" x2="393.028" y2="82.3596" gradientUnits="userSpaceOnUse">
<stop stop-color="#E1473D"/>
<stop offset="1" stop-color="#E9605A"/>
</linearGradient>
<linearGradient id="paint78_linear_137_1027" x1="363.964" y1="75.7754" x2="430.452" y2="100.218" gradientUnits="userSpaceOnUse">
<stop stop-color="#E1473D"/>
<stop offset="1" stop-color="#E9605A"/>
</linearGradient>
<linearGradient id="paint79_linear_137_1027" x1="365.41" y1="124.269" x2="328.344" y2="108.167" gradientUnits="userSpaceOnUse">
<stop stop-color="#E1473D"/>
<stop offset="1" stop-color="#E9605A"/>
</linearGradient>
<linearGradient id="paint80_linear_137_1027" x1="357.347" y1="116.752" x2="293.925" y2="89.2013" gradientUnits="userSpaceOnUse">
<stop stop-color="#E1473D"/>
<stop offset="1" stop-color="#E9605A"/>
</linearGradient>
<linearGradient id="paint81_linear_137_1027" x1="397.77" y1="115.649" x2="423.632" y2="108.242" gradientUnits="userSpaceOnUse">
<stop stop-color="#E1473D"/>
<stop offset="1" stop-color="#E9605A"/>
</linearGradient>
<linearGradient id="paint82_linear_137_1027" x1="405.426" y1="116.122" x2="450.761" y2="103.136" gradientUnits="userSpaceOnUse">
<stop stop-color="#E1473D"/>
<stop offset="1" stop-color="#E9605A"/>
</linearGradient>
<linearGradient id="paint83_linear_137_1027" x1="426.626" y1="132.839" x2="407.032" y2="151.272" gradientUnits="userSpaceOnUse">
<stop stop-color="#E1473D"/>
<stop offset="1" stop-color="#E9605A"/>
</linearGradient>
<linearGradient id="paint84_linear_137_1027" x1="419.605" y1="135.927" x2="385.258" y2="168.24" gradientUnits="userSpaceOnUse">
<stop stop-color="#E1473D"/>
<stop offset="1" stop-color="#E9605A"/>
</linearGradient>
<linearGradient id="paint85_linear_137_1027" x1="391.784" y1="135.829" x2="399.91" y2="110.183" gradientUnits="userSpaceOnUse">
<stop stop-color="#E1473D"/>
<stop offset="1" stop-color="#E9605A"/>
</linearGradient>
<linearGradient id="paint86_linear_137_1027" x1="396.409" y1="129.711" x2="410.653" y2="84.7569" gradientUnits="userSpaceOnUse">
<stop stop-color="#E1473D"/>
<stop offset="1" stop-color="#E9605A"/>
</linearGradient>
<linearGradient id="paint87_linear_137_1027" x1="-143.827" y1="-1180.45" x2="-124.005" y2="-1133.48" gradientUnits="userSpaceOnUse">
<stop stop-color="#FF928E"/>
<stop offset="1" stop-color="#FE7062"/>
</linearGradient>
<linearGradient id="paint88_linear_137_1027" x1="418.599" y1="134.808" x2="428.34" y2="159.885" gradientUnits="userSpaceOnUse">
<stop stop-color="#E1473D"/>
<stop offset="1" stop-color="#E9605A"/>
</linearGradient>
<linearGradient id="paint89_linear_137_1027" x1="408.984" y1="137.063" x2="418.725" y2="162.14" gradientUnits="userSpaceOnUse">
<stop stop-color="#E1473D"/>
<stop offset="1" stop-color="#E9605A"/>
</linearGradient>
<linearGradient id="paint90_linear_137_1027" x1="413.647" y1="124.949" x2="423.388" y2="150.026" gradientUnits="userSpaceOnUse">
<stop stop-color="#E1473D"/>
<stop offset="1" stop-color="#E9605A"/>
</linearGradient>
<linearGradient id="paint91_linear_137_1027" x1="401.124" y1="129.123" x2="410.864" y2="154.2" gradientUnits="userSpaceOnUse">
<stop stop-color="#E1473D"/>
<stop offset="1" stop-color="#E9605A"/>
</linearGradient>
<linearGradient id="paint92_linear_137_1027" x1="407.097" y1="145.01" x2="416.837" y2="170.086" gradientUnits="userSpaceOnUse">
<stop stop-color="#E1473D"/>
<stop offset="1" stop-color="#E9605A"/>
</linearGradient>
<linearGradient id="paint93_linear_137_1027" x1="420.02" y1="145.01" x2="429.761" y2="170.086" gradientUnits="userSpaceOnUse">
<stop stop-color="#E1473D"/>
<stop offset="1" stop-color="#E9605A"/>
</linearGradient>
<linearGradient id="paint94_linear_137_1027" x1="414.867" y1="112.744" x2="430.865" y2="134.373" gradientUnits="userSpaceOnUse">
<stop stop-color="#E1473D"/>
<stop offset="1" stop-color="#E9605A"/>
</linearGradient>
<linearGradient id="paint95_linear_137_1027" x1="417.107" y1="120.08" x2="445.149" y2="157.993" gradientUnits="userSpaceOnUse">
<stop stop-color="#E1473D"/>
<stop offset="1" stop-color="#E9605A"/>
</linearGradient>
<linearGradient id="paint96_linear_137_1027" x1="426.02" y1="124.732" x2="414.774" y2="149.17" gradientUnits="userSpaceOnUse">
<stop stop-color="#E1473D"/>
<stop offset="1" stop-color="#E9605A"/>
</linearGradient>
<linearGradient id="paint97_linear_137_1027" x1="420.859" y1="130.315" x2="401.145" y2="173.153" gradientUnits="userSpaceOnUse">
<stop stop-color="#E1473D"/>
<stop offset="1" stop-color="#E9605A"/>
</linearGradient>
<linearGradient id="paint98_linear_137_1027" x1="416.508" y1="127.32" x2="408.458" y2="148.257" gradientUnits="userSpaceOnUse">
<stop stop-color="#E1473D"/>
<stop offset="1" stop-color="#E9605A"/>
</linearGradient>
<linearGradient id="paint99_linear_137_1027" x1="412.976" y1="132.421" x2="398.866" y2="169.122" gradientUnits="userSpaceOnUse">
<stop stop-color="#E1473D"/>
<stop offset="1" stop-color="#E9605A"/>
</linearGradient>
<linearGradient id="paint100_linear_137_1027" x1="421.282" y1="135.27" x2="400.265" y2="145.968" gradientUnits="userSpaceOnUse">
<stop stop-color="#E1473D"/>
<stop offset="1" stop-color="#E9605A"/>
</linearGradient>
<linearGradient id="paint101_linear_137_1027" x1="416.91" y1="136.349" x2="385.779" y2="149.943" gradientUnits="userSpaceOnUse">
<stop stop-color="#E1473D"/>
<stop offset="1" stop-color="#E9605A"/>
</linearGradient>
<linearGradient id="paint102_linear_137_1027" x1="423.991" y1="141.487" x2="397.362" y2="145.314" gradientUnits="userSpaceOnUse">
<stop stop-color="#E1473D"/>
<stop offset="1" stop-color="#E9605A"/>
</linearGradient>
<linearGradient id="paint103_linear_137_1027" x1="416.724" y1="140.016" x2="370.919" y2="146.599" gradientUnits="userSpaceOnUse">
<stop stop-color="#E1473D"/>
<stop offset="1" stop-color="#E9605A"/>
</linearGradient>
<linearGradient id="paint104_linear_137_1027" x1="408.821" y1="138.151" x2="390.338" y2="126.395" gradientUnits="userSpaceOnUse">
<stop stop-color="#E1473D"/>
<stop offset="1" stop-color="#E9605A"/>
</linearGradient>
<linearGradient id="paint105_linear_137_1027" x1="406.417" y1="135.327" x2="382.651" y2="117.543" gradientUnits="userSpaceOnUse">
<stop stop-color="#E1473D"/>
<stop offset="1" stop-color="#E9605A"/>
</linearGradient>
<linearGradient id="paint106_linear_137_1027" x1="404.827" y1="149.735" x2="389.054" y2="127.941" gradientUnits="userSpaceOnUse">
<stop stop-color="#E1473D"/>
<stop offset="1" stop-color="#E9605A"/>
</linearGradient>
<linearGradient id="paint107_linear_137_1027" x1="402.752" y1="142.692" x2="375.753" y2="105.388" gradientUnits="userSpaceOnUse">
<stop stop-color="#E1473D"/>
<stop offset="1" stop-color="#E9605A"/>
</linearGradient>
<linearGradient id="paint108_linear_137_1027" x1="422.513" y1="117.77" x2="429.418" y2="143.771" gradientUnits="userSpaceOnUse">
<stop stop-color="#E1473D"/>
<stop offset="1" stop-color="#E9605A"/>
</linearGradient>
<linearGradient id="paint109_linear_137_1027" x1="422.039" y1="125.243" x2="434.023" y2="170.374" gradientUnits="userSpaceOnUse">
<stop stop-color="#E1473D"/>
<stop offset="1" stop-color="#E9605A"/>
</linearGradient>
<linearGradient id="paint110_linear_137_1027" x1="391.405" y1="125.164" x2="411.037" y2="106.771" gradientUnits="userSpaceOnUse">
<stop stop-color="#E1473D"/>
<stop offset="1" stop-color="#E9605A"/>
</linearGradient>
<linearGradient id="paint111_linear_137_1027" x1="398.171" y1="122.129" x2="432.013" y2="90.4219" gradientUnits="userSpaceOnUse">
<stop stop-color="#E1473D"/>
<stop offset="1" stop-color="#E9605A"/>
</linearGradient>
<linearGradient id="paint112_linear_137_1027" x1="398.983" y1="128.504" x2="416.553" y2="113.841" gradientUnits="userSpaceOnUse">
<stop stop-color="#E1473D"/>
<stop offset="1" stop-color="#E9605A"/>
</linearGradient>
<linearGradient id="paint113_linear_137_1027" x1="404.604" y1="125.93" x2="434.892" y2="100.653" gradientUnits="userSpaceOnUse">
<stop stop-color="#E1473D"/>
<stop offset="1" stop-color="#E9605A"/>
</linearGradient>
<linearGradient id="paint114_linear_137_1027" x1="409.833" y1="123.867" x2="430.128" y2="136.12" gradientUnits="userSpaceOnUse">
<stop stop-color="#E1473D"/>
<stop offset="1" stop-color="#E9605A"/>
</linearGradient>
<linearGradient id="paint115_linear_137_1027" x1="412.283" y1="126.31" x2="436.623" y2="144.073" gradientUnits="userSpaceOnUse">
<stop stop-color="#E1473D"/>
<stop offset="1" stop-color="#E9605A"/>
</linearGradient>
<linearGradient id="paint116_linear_137_1027" x1="397.498" y1="143.759" x2="398.892" y2="116.893" gradientUnits="userSpaceOnUse">
<stop stop-color="#E1473D"/>
<stop offset="1" stop-color="#E9605A"/>
</linearGradient>
<linearGradient id="paint117_linear_137_1027" x1="400.394" y1="136.496" x2="402.87" y2="88.7813" gradientUnits="userSpaceOnUse">
<stop stop-color="#E1473D"/>
<stop offset="1" stop-color="#E9605A"/>
</linearGradient>
<linearGradient id="paint118_linear_137_1027" x1="406.368" y1="111.873" x2="431.618" y2="121.155" gradientUnits="userSpaceOnUse">
<stop stop-color="#E1473D"/>
<stop offset="1" stop-color="#E9605A"/>
</linearGradient>
<linearGradient id="paint119_linear_137_1027" x1="412.271" y1="116.772" x2="456.531" y2="133.043" gradientUnits="userSpaceOnUse">
<stop stop-color="#E1473D"/>
<stop offset="1" stop-color="#E9605A"/>
</linearGradient>
<linearGradient id="paint120_linear_137_1027" x1="413.233" y1="149.054" x2="388.559" y2="138.335" gradientUnits="userSpaceOnUse">
<stop stop-color="#E1473D"/>
<stop offset="1" stop-color="#E9605A"/>
</linearGradient>
<linearGradient id="paint121_linear_137_1027" x1="407.866" y1="144.05" x2="365.647" y2="125.71" gradientUnits="userSpaceOnUse">
<stop stop-color="#E1473D"/>
<stop offset="1" stop-color="#E9605A"/>
</linearGradient>
<linearGradient id="paint122_linear_137_1027" x1="358.603" y1="145.651" x2="379.669" y2="139.617" gradientUnits="userSpaceOnUse">
<stop stop-color="#E1473D"/>
<stop offset="1" stop-color="#E9605A"/>
</linearGradient>
<linearGradient id="paint123_linear_137_1027" x1="364.839" y1="146.035" x2="401.766" y2="135.458" gradientUnits="userSpaceOnUse">
<stop stop-color="#E1473D"/>
<stop offset="1" stop-color="#E9605A"/>
</linearGradient>
<linearGradient id="paint124_linear_137_1027" x1="382.108" y1="159.652" x2="366.147" y2="174.667" gradientUnits="userSpaceOnUse">
<stop stop-color="#E1473D"/>
<stop offset="1" stop-color="#E9605A"/>
</linearGradient>
<linearGradient id="paint125_linear_137_1027" x1="376.388" y1="162.168" x2="348.411" y2="188.489" gradientUnits="userSpaceOnUse">
<stop stop-color="#E1473D"/>
<stop offset="1" stop-color="#E9605A"/>
</linearGradient>
<linearGradient id="paint126_linear_137_1027" x1="353.726" y1="162.088" x2="360.346" y2="141.199" gradientUnits="userSpaceOnUse">
<stop stop-color="#E1473D"/>
<stop offset="1" stop-color="#E9605A"/>
</linearGradient>
<linearGradient id="paint127_linear_137_1027" x1="357.495" y1="157.105" x2="369.098" y2="120.488" gradientUnits="userSpaceOnUse">
<stop stop-color="#E1473D"/>
<stop offset="1" stop-color="#E9605A"/>
</linearGradient>
<linearGradient id="paint128_linear_137_1027" x1="-188.667" y1="-1161.53" x2="-168.846" y2="-1114.56" gradientUnits="userSpaceOnUse">
<stop stop-color="#FF928E"/>
<stop offset="1" stop-color="#FE7062"/>
</linearGradient>
<linearGradient id="paint129_linear_137_1027" x1="375.569" y1="161.257" x2="383.503" y2="181.683" gradientUnits="userSpaceOnUse">
<stop stop-color="#E1473D"/>
<stop offset="1" stop-color="#E9605A"/>
</linearGradient>
<linearGradient id="paint130_linear_137_1027" x1="367.738" y1="163.094" x2="375.672" y2="183.52" gradientUnits="userSpaceOnUse">
<stop stop-color="#E1473D"/>
<stop offset="1" stop-color="#E9605A"/>
</linearGradient>
<linearGradient id="paint131_linear_137_1027" x1="371.536" y1="153.226" x2="379.47" y2="173.652" gradientUnits="userSpaceOnUse">
<stop stop-color="#E1473D"/>
<stop offset="1" stop-color="#E9605A"/>
</linearGradient>
<linearGradient id="paint132_linear_137_1027" x1="361.335" y1="156.627" x2="369.269" y2="177.053" gradientUnits="userSpaceOnUse">
<stop stop-color="#E1473D"/>
<stop offset="1" stop-color="#E9605A"/>
</linearGradient>
<linearGradient id="paint133_linear_137_1027" x1="366.2" y1="169.567" x2="374.134" y2="189.993" gradientUnits="userSpaceOnUse">
<stop stop-color="#E1473D"/>
<stop offset="1" stop-color="#E9605A"/>
</linearGradient>
<linearGradient id="paint134_linear_137_1027" x1="376.726" y1="169.567" x2="384.661" y2="189.993" gradientUnits="userSpaceOnUse">
<stop stop-color="#E1473D"/>
<stop offset="1" stop-color="#E9605A"/>
</linearGradient>
<linearGradient id="paint135_linear_137_1027" x1="372.53" y1="143.284" x2="385.561" y2="160.902" gradientUnits="userSpaceOnUse">
<stop stop-color="#E1473D"/>
<stop offset="1" stop-color="#E9605A"/>
</linearGradient>
<linearGradient id="paint136_linear_137_1027" x1="374.354" y1="149.26" x2="397.196" y2="180.142" gradientUnits="userSpaceOnUse">
<stop stop-color="#E1473D"/>
<stop offset="1" stop-color="#E9605A"/>
</linearGradient>
<linearGradient id="paint137_linear_137_1027" x1="381.614" y1="153.05" x2="372.453" y2="172.956" gradientUnits="userSpaceOnUse">
<stop stop-color="#E1473D"/>
<stop offset="1" stop-color="#E9605A"/>
</linearGradient>
<linearGradient id="paint138_linear_137_1027" x1="377.41" y1="157.598" x2="361.351" y2="192.492" gradientUnits="userSpaceOnUse">
<stop stop-color="#E1473D"/>
<stop offset="1" stop-color="#E9605A"/>
</linearGradient>
<linearGradient id="paint139_linear_137_1027" x1="373.866" y1="155.158" x2="367.309" y2="172.213" gradientUnits="userSpaceOnUse">
<stop stop-color="#E1473D"/>
<stop offset="1" stop-color="#E9605A"/>
</linearGradient>
<linearGradient id="paint140_linear_137_1027" x1="370.99" y1="159.313" x2="359.496" y2="189.208" gradientUnits="userSpaceOnUse">
<stop stop-color="#E1473D"/>
<stop offset="1" stop-color="#E9605A"/>
</linearGradient>
<linearGradient id="paint141_linear_137_1027" x1="377.755" y1="161.633" x2="360.635" y2="170.347" gradientUnits="userSpaceOnUse">
<stop stop-color="#E1473D"/>
<stop offset="1" stop-color="#E9605A"/>
</linearGradient>
<linearGradient id="paint142_linear_137_1027" x1="374.193" y1="162.512" x2="348.836" y2="173.585" gradientUnits="userSpaceOnUse">
<stop stop-color="#E1473D"/>
<stop offset="1" stop-color="#E9605A"/>
</linearGradient>
<linearGradient id="paint143_linear_137_1027" x1="379.962" y1="166.697" x2="358.271" y2="169.814" gradientUnits="userSpaceOnUse">
<stop stop-color="#E1473D"/>
<stop offset="1" stop-color="#E9605A"/>
</linearGradient>
<linearGradient id="paint144_linear_137_1027" x1="374.042" y1="165.499" x2="336.732" y2="170.86" gradientUnits="userSpaceOnUse">
<stop stop-color="#E1473D"/>
<stop offset="1" stop-color="#E9605A"/>
</linearGradient>
<linearGradient id="paint145_linear_137_1027" x1="367.605" y1="163.98" x2="352.55" y2="154.404" gradientUnits="userSpaceOnUse">
<stop stop-color="#E1473D"/>
<stop offset="1" stop-color="#E9605A"/>
</linearGradient>
<linearGradient id="paint146_linear_137_1027" x1="365.646" y1="161.68" x2="346.288" y2="147.194" gradientUnits="userSpaceOnUse">
<stop stop-color="#E1473D"/>
<stop offset="1" stop-color="#E9605A"/>
</linearGradient>
<linearGradient id="paint147_linear_137_1027" x1="364.352" y1="173.415" x2="351.504" y2="155.663" gradientUnits="userSpaceOnUse">
<stop stop-color="#E1473D"/>
<stop offset="1" stop-color="#E9605A"/>
</linearGradient>
<linearGradient id="paint148_linear_137_1027" x1="362.661" y1="167.678" x2="340.67" y2="137.292" gradientUnits="userSpaceOnUse">
<stop stop-color="#E1473D"/>
<stop offset="1" stop-color="#E9605A"/>
</linearGradient>
<linearGradient id="paint149_linear_137_1027" x1="378.757" y1="147.378" x2="384.382" y2="168.557" gradientUnits="userSpaceOnUse">
<stop stop-color="#E1473D"/>
<stop offset="1" stop-color="#E9605A"/>
</linearGradient>
<linearGradient id="paint150_linear_137_1027" x1="378.372" y1="153.466" x2="388.134" y2="190.226" gradientUnits="userSpaceOnUse">
<stop stop-color="#E1473D"/>
<stop offset="1" stop-color="#E9605A"/>
</linearGradient>
<linearGradient id="paint151_linear_137_1027" x1="353.418" y1="153.401" x2="369.409" y2="138.419" gradientUnits="userSpaceOnUse">
<stop stop-color="#E1473D"/>
<stop offset="1" stop-color="#E9605A"/>
</linearGradient>
<linearGradient id="paint152_linear_137_1027" x1="358.93" y1="150.929" x2="386.497" y2="125.101" gradientUnits="userSpaceOnUse">
<stop stop-color="#E1473D"/>
<stop offset="1" stop-color="#E9605A"/>
</linearGradient>
<linearGradient id="paint153_linear_137_1027" x1="359.591" y1="156.122" x2="373.903" y2="144.178" gradientUnits="userSpaceOnUse">
<stop stop-color="#E1473D"/>
<stop offset="1" stop-color="#E9605A"/>
</linearGradient>
<linearGradient id="paint154_linear_137_1027" x1="364.17" y1="154.025" x2="388.841" y2="133.436" gradientUnits="userSpaceOnUse">
<stop stop-color="#E1473D"/>
<stop offset="1" stop-color="#E9605A"/>
</linearGradient>
<linearGradient id="paint155_linear_137_1027" x1="368.429" y1="152.345" x2="384.96" y2="162.326" gradientUnits="userSpaceOnUse">
<stop stop-color="#E1473D"/>
<stop offset="1" stop-color="#E9605A"/>
</linearGradient>
<linearGradient id="paint156_linear_137_1027" x1="370.425" y1="154.335" x2="390.251" y2="168.804" gradientUnits="userSpaceOnUse">
<stop stop-color="#E1473D"/>
<stop offset="1" stop-color="#E9605A"/>
</linearGradient>
<linearGradient id="paint157_linear_137_1027" x1="358.381" y1="168.547" x2="359.517" y2="146.663" gradientUnits="userSpaceOnUse">
<stop stop-color="#E1473D"/>
<stop offset="1" stop-color="#E9605A"/>
</linearGradient>
<linearGradient id="paint158_linear_137_1027" x1="360.74" y1="162.632" x2="362.758" y2="123.766" gradientUnits="userSpaceOnUse">
<stop stop-color="#E1473D"/>
<stop offset="1" stop-color="#E9605A"/>
</linearGradient>
<linearGradient id="paint159_linear_137_1027" x1="365.607" y1="142.575" x2="386.175" y2="150.136" gradientUnits="userSpaceOnUse">
<stop stop-color="#E1473D"/>
<stop offset="1" stop-color="#E9605A"/>
</linearGradient>
<linearGradient id="paint160_linear_137_1027" x1="370.415" y1="146.565" x2="406.467" y2="159.819" gradientUnits="userSpaceOnUse">
<stop stop-color="#E1473D"/>
<stop offset="1" stop-color="#E9605A"/>
</linearGradient>
<linearGradient id="paint161_linear_137_1027" x1="371.199" y1="172.86" x2="351.1" y2="164.129" gradientUnits="userSpaceOnUse">
<stop stop-color="#E1473D"/>
<stop offset="1" stop-color="#E9605A"/>
</linearGradient>
<linearGradient id="paint162_linear_137_1027" x1="366.826" y1="168.784" x2="332.437" y2="153.845" gradientUnits="userSpaceOnUse">
<stop stop-color="#E1473D"/>
<stop offset="1" stop-color="#E9605A"/>
</linearGradient>
</defs>
</svg>
