<svg width="48" height="48" viewBox="0 0 48 48" fill="none" xmlns="http://www.w3.org/2000/svg">
<path fill-rule="evenodd" clip-rule="evenodd" d="M13.9161 3.61084H41.4168C43.9433 3.61084 46.0005 5.69071 46.0005 8.24499V28.634C46.0005 31.1883 43.9433 33.2681 41.4168 33.2681H13.9161C11.39 33.2681 9.33276 31.1883 9.33276 28.634V8.24499C9.33276 5.69071 11.39 3.61084 13.9161 3.61084ZM41.4168 7.31809H13.9161C13.4103 7.31809 12.9996 7.73314 12.9996 8.2449V25.7407L18.0597 20.6266C19.3119 19.3589 21.3525 19.3589 22.6064 20.6266L24.8248 22.8639L31.6341 14.6009C32.2427 13.863 33.1338 13.4368 34.0834 13.4314C35.0385 13.4534 35.9277 13.8427 36.5421 14.5711L42.3336 21.4034V8.24499C42.3336 7.73323 41.9231 7.31809 41.4168 7.31809ZM6.9642 31.3198C7.91229 34.1484 10.523 36.0483 13.458 36.0483H40.0731L38.4215 41.3585C37.9538 43.1642 36.2854 44.3894 34.4595 44.3894C34.1031 44.3891 33.7483 44.343 33.4035 44.2523L5.05368 36.5764C2.8666 35.9666 1.56307 33.6776 2.13508 31.4699L6.5828 16.4596V29.0975C6.5828 29.7277 6.67648 30.3576 6.90009 31.1067L6.9642 31.3198ZM22.1664 12.8786C22.1664 14.9231 20.5222 16.5859 18.4999 16.5859C16.4776 16.5859 14.833 14.9231 14.833 12.8786C14.833 10.8342 16.4776 9.17139 18.4999 9.17139C20.5222 9.17139 22.1664 10.8341 22.1664 12.8786Z" fill="#A3A3A3"/>
</svg>
