<svg width="36" height="35" viewBox="0 0 36 35" fill="none" xmlns="http://www.w3.org/2000/svg">
<g clip-path="url(#clip0_133_2875)">
<path d="M2.6 6.30005C1.44818 6.30005 0.5 7.24823 0.5 8.40005V29.4H4.7V25.9H31.3V29.4H35.5V19.6V16.1C35.5 14.1782 33.9218 12.6 32 12.6H13.8C13.6144 12.6001 13.4363 12.6738 13.305 12.8051C13.1738 12.9364 13.1 13.1144 13.1 13.3V19.6H8.9H4.7V8.40005C4.7 7.24823 3.75182 6.30005 2.6 6.30005ZM8.9 19.6C10.8247 19.6 12.4 18.0248 12.4 16.1C12.4 14.1753 10.8247 12.6 8.9 12.6C6.97529 12.6 5.4 14.1753 5.4 16.1C5.4 18.0248 6.97529 19.6 8.9 19.6ZM8.9 14C10.0681 14 11 14.932 11 16.1C11 17.2681 10.0681 18.2 8.9 18.2C7.73191 18.2 6.8 17.2681 6.8 16.1C6.8 14.932 7.73191 14 8.9 14ZM14.5 14H32C33.1582 14 34.1 14.9419 34.1 16.1V19.6H14.5V14Z" fill="black"/>
</g>
<defs>
<clipPath id="clip0_133_2875">
<rect width="35" height="35" fill="black" transform="translate(0.5)"/>
</clipPath>
</defs>
</svg>
