<svg width="25" height="33" viewBox="0 0 25 33" fill="none" xmlns="http://www.w3.org/2000/svg">
<path d="M21.1957 6.6011C20.4432 6.6011 19.7077 6.82694 19.0821 7.25005C18.4564 7.67316 17.9688 8.27455 17.6809 8.97817C17.393 9.68178 17.3176 10.456 17.4644 11.203C17.6112 11.9499 17.9735 12.636 18.5056 13.1746C19.0376 13.7131 19.7155 14.0798 20.4535 14.2284C21.1914 14.377 21.9564 14.3007 22.6515 14.0093C23.3467 13.7178 23.9408 13.2243 24.3589 12.591C24.7769 11.9578 25 11.2133 25 10.4517C25 9.43049 24.5992 8.45106 23.8857 7.72893C23.1723 7.00679 22.2046 6.6011 21.1957 6.6011ZM21.1957 12.102C20.8732 12.102 20.558 12.0052 20.2898 11.8239C20.0217 11.6426 19.8127 11.3848 19.6893 11.0833C19.5659 10.7817 19.5336 10.4499 19.5965 10.1298C19.6595 9.80967 19.8147 9.51562 20.0428 9.28482C20.2708 9.05403 20.5613 8.89685 20.8776 8.83318C21.1938 8.7695 21.5217 8.80218 21.8196 8.92709C22.1175 9.05199 22.3722 9.26351 22.5513 9.5349C22.7305 9.80629 22.8261 10.1253 22.8261 10.4517C22.8261 10.8894 22.6543 11.3092 22.3485 11.6187C22.0428 11.9281 21.6281 12.102 21.1957 12.102ZM9.78261 19.9408V11.0018C9.78261 10.71 9.66809 10.4302 9.46425 10.2239C9.2604 10.0176 8.98393 9.90165 8.69565 9.90165C8.40737 9.90165 8.1309 10.0176 7.92706 10.2239C7.72321 10.4302 7.6087 10.71 7.6087 11.0018V19.9408C6.58407 20.2086 5.6911 20.8454 5.09717 21.7319C4.50325 22.6184 4.24914 23.6938 4.38248 24.7563C4.51582 25.8189 5.02746 26.7958 5.82149 27.5038C6.61551 28.2119 7.63742 28.6025 8.69565 28.6025C9.75388 28.6025 10.7758 28.2119 11.5698 27.5038C12.3638 26.7958 12.8755 25.8189 13.0088 24.7563C13.1422 23.6938 12.8881 22.6184 12.2941 21.7319C11.7002 20.8454 10.8072 20.2086 9.78261 19.9408ZM8.69565 26.4044C8.26569 26.4044 7.84539 26.2754 7.48789 26.0336C7.13039 25.7918 6.85176 25.4481 6.68722 25.0461C6.52268 24.644 6.47963 24.2016 6.56351 23.7748C6.64739 23.3479 6.85444 22.9559 7.15846 22.6481C7.46249 22.3404 7.84985 22.1308 8.27154 22.0459C8.69324 21.961 9.13034 22.0046 9.52757 22.1712C9.9248 22.3377 10.2643 22.6197 10.5032 22.9816C10.7421 23.3434 10.8696 23.7688 10.8696 24.204C10.8696 24.7876 10.6405 25.3473 10.2328 25.7599C9.82515 26.1726 9.27221 26.4044 8.69565 26.4044ZM14.1304 17.3279V5.50092C14.1304 4.04198 13.5578 2.6428 12.5386 1.61118C11.5194 0.579559 10.137 0 8.69565 0C7.25426 0 5.8719 0.579559 4.85268 1.61118C3.83346 2.6428 3.26087 4.04198 3.26087 5.50092V17.3279C1.85451 18.4676 0.8326 20.0213 0.336369 21.7742C-0.159863 23.5272 -0.105917 25.3929 0.490751 27.1135C1.08742 28.8341 2.19735 30.3246 3.66716 31.3791C5.13696 32.4336 6.89407 33 8.69565 33C10.4972 33 12.2543 32.4336 13.7241 31.3791C15.194 30.3246 16.3039 28.8341 16.9006 27.1135C17.4972 25.3929 17.5512 23.5272 17.0549 21.7742C16.5587 20.0213 15.5368 18.4676 14.1304 17.3279ZM8.69565 30.8051C7.30699 30.8052 5.95454 30.3567 4.83521 29.5248C3.71588 28.6929 2.88812 27.5211 2.47243 26.18C2.05674 24.8389 2.07483 23.3985 2.52407 22.0685C2.97331 20.7386 3.83025 19.5884 4.97011 18.7856C5.11435 18.6837 5.23199 18.5478 5.31292 18.3897C5.39386 18.2317 5.43568 18.056 5.43478 17.878V5.50092C5.43478 4.62556 5.77834 3.78605 6.38987 3.16708C7.0014 2.5481 7.83082 2.20037 8.69565 2.20037C9.56049 2.20037 10.3899 2.5481 11.0014 3.16708C11.613 3.78605 11.9565 4.62556 11.9565 5.50092V17.878C11.9565 18.0551 11.9987 18.2296 12.0796 18.3867C12.1605 18.5438 12.2777 18.6787 12.4212 18.7801C13.5634 19.5821 14.4226 20.7325 14.8734 22.0636C15.3241 23.3946 15.3429 24.8366 14.927 26.1792C14.511 27.5218 13.6821 28.6948 12.5611 29.5269C11.4401 30.3591 10.0858 30.8069 8.69565 30.8051Z" fill="#FF6666"/>
</svg>
